<?xml version="1.0" standalone="no"?>
<!DOCTYPE svg PUBLIC "-//W3C//DTD SVG 1.1//EN" 
    "http://www.w3.org/Graphics/SVG/1.1/DTD/svg11.dtd">
<svg width="29.7cm" height="42cm"
    xmlns="http://www.w3.org/2000/svg" version="1.1" viewBox="0 0 1052.3622 1488.18898">
  <g fill="none" stroke="black" stroke-width="0.1cm" stroke-linejoin="round" stroke-linecap="round">
    <path d="M394.63583 609.89173 L394.55604 614.61036 L393.92678 623.87379 L392.69133 632.89385 L390.87379 641.65665 L388.49825 650.14827 L385.58878 658.3548 L382.16948 666.26235 L378.26443 673.85701 L373.89772 681.12486 L369.09343 688.05201 L363.87566 694.62454 L358.26849 700.82855 L352.296 706.65013 L345.98228 712.07538 L339.35143 717.09039 L332.42751 721.68125 L325.23464 725.83406 L317.79688 729.53491 L310.13832 732.7699 L302.28306 735.52511 L294.25518 737.78665 L286.07876 739.5406 L277.7779 740.77306 L269.37667 741.47012 L260.89917 741.61787 L252.36948 741.20242 L243.81169 740.20985 L235.24989 738.62625 L226.70816 736.43772 L218.21058 733.63036 L209.78126 730.19026 L201.44426 726.1035 L197.31792 723.81329 L193.54834 721.55244 L186.29081 716.69241 L179.42032 711.40126 L172.95069 705.70295 L166.89576 699.62143 L161.26936 693.18068 L156.08534 686.40465 L151.35751 679.3173 L147.09973 671.9426 L143.32582 664.30451 L140.04961 656.427 L137.28496 648.33402 L135.04567 640.04954 L133.3456 631.59752 L132.19858 623.00192 L131.61844 614.28671 L131.54528 609.89173 L131.62506 605.1731 L132.25433 595.90968 L133.48977 586.88961 L135.30731 578.12682 L137.68286 569.6352 L140.59232 561.42866 L144.01163 553.52111 L147.91668 545.92646 L152.28339 538.6586 L157.08767 531.73146 L162.30544 525.15893 L167.91262 518.95492 L173.8851 513.13333 L180.19882 507.70808 L186.82968 502.69308 L193.75359 498.10221 L200.94647 493.9494 L208.38423 490.24855 L216.04278 487.01356 L223.89804 484.25835 L231.92592 481.99682 L240.10234 480.24287 L248.40321 479.01041 L256.80443 478.31335 L265.28193 478.16559 L273.81162 478.58105 L282.36941 479.57362 L290.93121 481.15721 L299.47295 483.34574 L307.97052 486.1531 L316.39985 489.59321 L324.73684 493.67996 L328.86319 495.97018 L332.63276 498.23103 L339.89029 503.09105 L346.76078 508.3822 L353.23041 514.08051 L359.28534 520.16203 L364.91174 526.60279 L370.09577 533.37882 L374.82359 540.46616 L379.08137 547.84086 L382.85529 555.47895 L386.13149 563.35647 L388.89615 571.44945 L391.13543 579.73393 L392.8355 588.18595 L393.98252 596.78155 L394.56266 605.49676 L394.63583 609.89173 L526.1811 609.89173 L526.10132 614.61036 L525.47205 623.87379 L524.23661 632.89385 L522.41907 641.65665 L520.04352 650.14827 L517.13405 658.3548 L513.71475 666.26235 L509.8097 673.85701 L505.44299 681.12486 L500.63871 688.05201 L495.42093 694.62454 L489.81376 700.82855 L483.84127 706.65013 L477.52756 712.07538 L470.8967 717.09039 L463.97279 721.68125 L456.77991 725.83406 L449.34215 729.53491 L441.6836 732.7699 L433.82834 735.52511 L425.80045 737.78665 L417.62404 739.5406 L409.32317 740.77306 L400.92195 741.47012 L392.44444 741.61787 L383.91476 741.20242 L375.35697 740.20985 L366.79516 738.62625 L358.25343 736.43772 L349.75586 733.63036 L341.32653 730.19026 L332.98954 726.1035 L328.86319 723.81329 L325.09362 721.55244 L317.83609 716.69241 L310.96559 711.40126 L304.49596 705.70295 L298.44103 699.62143 L292.81464 693.18068 L287.63061 686.40465 L282.90279 679.3173 L278.645 671.9426 L274.87109 664.30451 L271.59489 656.427 L268.83023 648.33402 L266.59095 640.04954 L264.89088 631.59752 L263.74386 623.00192 L263.16372 614.28671 L263.09055 609.89173 L263.17034 605.1731 L263.7996 595.90968 L265.03505 586.88961 L266.85259 578.12682 L269.22813 569.6352 L272.1376 561.42866 L275.5569 553.52111 L279.46195 545.92646 L283.82866 538.6586 L288.63295 531.73146 L293.85072 525.15893 L299.45789 518.95492 L305.43038 513.13333 L311.7441 507.70808 L318.37495 502.69308 L325.29886 498.10221 L332.49174 493.9494 L339.9295 490.24855 L347.58806 487.01356 L355.44332 484.25835 L363.4712 481.99682 L371.64762 480.24287 L379.94848 479.01041 L388.34971 478.31335 L396.82721 478.16559 L405.3569 478.58105 L413.91469 479.57362 L422.47649 481.15721 L431.01822 483.34574 L439.51579 486.1531 L447.94512 489.59321 L456.28212 493.67996 L460.40846 495.97018 L464.17804 498.23103 L471.43556 503.09105 L478.30606 508.3822 L484.77569 514.08051 L490.83062 520.16203 L496.45702 526.60279 L501.64104 533.37882 L506.36887 540.46616 L510.62665 547.84086 L514.40056 555.47895 L517.67676 563.35647 L520.44142 571.44945 L522.6807 579.73393 L524.38077 588.18595 L525.5278 596.78155 L526.10794 605.49676 L526.1811 609.89173 L526.1811 741.43701 L526.10132 746.15564 L525.47205 755.41906 L524.23661 764.43913 L522.41907 773.20192 L520.04352 781.69354 L517.13405 789.90008 L513.71475 797.80763 L509.8097 805.40228 L505.44299 812.67014 L500.63871 819.59728 L495.42093 826.16981 L489.81376 832.37382 L483.84127 838.19541 L477.52756 843.62066 L470.8967 848.63567 L463.97279 853.22653 L456.77991 857.37934 L449.34215 861.08019 L441.6836 864.31518 L433.82834 867.07039 L425.80045 869.33192 L417.62404 871.08587 L409.32317 872.31833 L400.92195 873.01539 L392.44444 873.16315 L383.91476 872.74769 L375.35697 871.75512 L366.79516 870.17153 L358.25343 867.983 L349.75586 865.17564 L341.32653 861.73553 L332.98954 857.64878 L328.86319 855.35856 L325.09362 853.09771 L317.83609 848.23769 L310.96559 842.94654 L304.49596 837.24823 L298.44103 831.16671 L292.81464 824.72595 L287.63061 817.94992 L282.90279 810.86258 L278.645 803.48788 L274.87109 795.84979 L271.59489 787.97227 L268.83023 779.87929 L266.59095 771.59481 L264.89088 763.14279 L263.74386 754.54719 L263.16372 745.83198 L263.09055 741.43701 L263.17034 736.71838 L263.7996 727.45495 L265.03505 718.43489 L266.85259 709.67209 L269.22813 701.18047 L272.1376 692.97394 L275.5569 685.06639 L279.46195 677.47173 L283.82866 670.20388 L288.63295 663.27673 L293.85072 656.7042 L299.45789 650.50019 L305.43038 644.67861 L311.7441 639.25336 L318.37495 634.23835 L325.29886 629.64749 L332.49174 625.49468 L339.9295 621.79383 L347.58806 618.55884 L355.44332 615.80363 L363.4712 613.54209 L371.64762 611.78814 L379.94848 610.55568 L388.34971 609.85862 L396.82721 609.71087 L405.3569 610.12632 L413.91469 611.11889 L422.47649 612.70249 L431.01822 614.89102 L439.51579 617.69838 L447.94512 621.13848 L456.28212 625.22524 L460.40846 627.51545 L464.17804 629.7763 L471.43556 634.63633 L478.30606 639.92748 L484.77569 645.62579 L490.83062 651.70731 L496.45702 658.14806 L501.64104 664.92409 L506.36887 672.01144 L510.62665 679.38614 L514.40056 687.02423 L517.67676 694.90174 L520.44142 702.99472 L522.6807 711.2792 L524.38077 719.73122 L525.5278 728.32682 L526.10794 737.04203 L526.1811 741.43701 L526.1811 609.89173 L657.72638 609.89173 L657.64659 614.61036 L657.01733 623.87379 L655.78188 632.89385 L653.96434 641.65665 L651.5888 650.14827 L648.67933 658.3548 L645.26003 666.26235 L641.35498 673.85701 L636.98827 681.12486 L632.18398 688.05201 L626.96621 694.62454 L621.35904 700.82855 L615.38655 706.65013 L609.07283 712.07538 L602.44198 717.09039 L595.51807 721.68125 L588.32519 725.83406 L580.88743 729.53491 L573.22887 732.7699 L565.37361 735.52511 L557.34573 737.78665 L549.16931 739.5406 L540.86845 740.77306 L532.46722 741.47012 L523.98972 741.61787 L515.46003 741.20242 L506.90224 740.20985 L498.34044 738.62625 L489.79871 736.43772 L481.30113 733.63036 L472.87181 730.19026 L464.53481 726.1035 L460.40847 723.81329 L456.63889 721.55244 L449.38137 716.69241 L442.51087 711.40126 L436.04124 705.70295 L429.98631 699.62143 L424.35991 693.18068 L419.17589 686.40465 L414.44806 679.3173 L410.19028 671.9426 L406.41637 664.30451 L403.14017 656.427 L400.37551 648.33402 L398.13622 640.04954 L396.43616 631.59752 L395.28913 623.00192 L394.70899 614.28671 L394.63583 609.89173 L394.71561 605.1731 L395.34488 595.90968 L396.58032 586.88961 L398.39786 578.12682 L400.77341 569.6352 L403.68288 561.42866 L407.10218 553.52111 L411.00723 545.92646 L415.37394 538.6586 L420.17822 531.73146 L425.39599 525.15893 L431.00317 518.95492 L436.97566 513.13333 L443.28937 507.70808 L449.92023 502.69308 L456.84414 498.10221 L464.03702 493.9494 L471.47478 490.24855 L479.13333 487.01356 L486.98859 484.25835 L495.01648 481.99682 L503.19289 480.24287 L511.49376 479.01041 L519.89498 478.31335 L528.37248 478.16559 L536.90217 478.58105 L545.45996 479.57362 L554.02177 481.15721 L562.5635 483.34574 L571.06107 486.1531 L579.4904 489.59321 L587.82739 493.67996 L591.95374 495.97018 L595.72331 498.23103 L602.98084 503.09105 L609.85133 508.3822 L616.32096 514.08051 L622.3759 520.16203 L628.00229 526.60279 L633.18632 533.37882 L637.91414 540.46616 L642.17193 547.84086 L645.94584 555.47895 L649.22204 563.35647 L651.9867 571.44945 L654.22598 579.73393 L655.92605 588.18595 L657.07307 596.78155 L657.65321 605.49676 L657.72638 609.89173 L657.64659 614.61036 L657.01733 623.87379 L655.78188 632.89385 L653.96434 641.65665 L651.5888 650.14827 L648.67933 658.3548 L645.26003 666.26235 L641.35498 673.85701 L636.98827 681.12486 L632.18398 688.05201 L626.96621 694.62454 L621.35904 700.82855 L615.38655 706.65013 L609.07283 712.07538 L602.44198 717.09039 L595.51807 721.68125 L588.32519 725.83406 L580.88743 729.53491 L573.22887 732.7699 L565.37361 735.52511 L557.34573 737.78665 L549.16931 739.5406 L540.86845 740.77306 L532.46722 741.47012 L523.98972 741.61787 L515.46003 741.20242 L506.90224 740.20985 L498.34044 738.62625 L489.79871 736.43772 L481.30113 733.63036 L472.87181 730.19026 L464.53481 726.1035 L460.40847 723.81329 L456.63889 721.55244 L449.38137 716.69241 L442.51087 711.40126 L436.04124 705.70295 L429.98631 699.62143 L424.35991 693.18068 L419.17589 686.40465 L414.44806 679.3173 L410.19028 671.9426 L406.41637 664.30451 L403.14017 656.427 L400.37551 648.33402 L398.13622 640.04954 L396.43616 631.59752 L395.28913 623.00192 L394.70899 614.28671 L394.63583 609.89173 L394.71561 605.1731 L395.34488 595.90968 L396.58032 586.88961 L398.39786 578.12682 L400.77341 569.6352 L403.68288 561.42866 L407.10218 553.52111 L411.00723 545.92646 L415.37394 538.6586 L420.17822 531.73146 L425.39599 525.15893 L431.00317 518.95492 L436.97566 513.13333 L443.28937 507.70808 L449.92023 502.69308 L456.84414 498.10221 L464.03702 493.9494 L471.47478 490.24855 L479.13333 487.01356 L486.98859 484.25835 L495.01648 481.99682 L503.19289 480.24287 L511.49376 479.01041 L519.89498 478.31335 L528.37248 478.16559 L536.90217 478.58105 L545.45996 479.57362 L554.02177 481.15721 L562.5635 483.34574 L571.06107 486.1531 L579.4904 489.59321 L587.82739 493.67996 L591.95374 495.97018 L595.72331 498.23103 L602.98084 503.09105 L609.85133 508.3822 L616.32096 514.08051 L622.3759 520.16203 L628.00229 526.60279 L633.18632 533.37882 L637.91414 540.46616 L642.17193 547.84086 L645.94584 555.47895 L649.22204 563.35647 L651.9867 571.44945 L654.22598 579.73393 L655.92605 588.18595 L657.07307 596.78155 L657.65321 605.49676 L657.72638 609.89173 L657.72638 478.34646" />
    <path d="M657.72638 609.89173 L657.64659 614.61036 L657.01733 623.87379 L655.78188 632.89385 L653.96434 641.65665 L651.5888 650.14827 L648.67933 658.3548 L645.26003 666.26235 L641.35498 673.85701 L636.98827 681.12486 L632.18398 688.05201 L626.96621 694.62454 L621.35904 700.82855 L615.38655 706.65013 L609.07283 712.07538 L602.44198 717.09039 L595.51807 721.68125 L588.32519 725.83406 L580.88743 729.53491 L573.22887 732.7699 L565.37361 735.52511 L557.34573 737.78665 L549.16931 739.5406 L540.86845 740.77306 L532.46722 741.47012 L523.98972 741.61787 L515.46003 741.20242 L506.90224 740.20985 L498.34044 738.62625 L489.79871 736.43772 L481.30113 733.63036 L472.87181 730.19026 L464.53481 726.1035 L460.40847 723.81329 L456.63889 721.55244 L449.38137 716.69241 L442.51087 711.40126 L436.04124 705.70295 L429.98631 699.62143 L424.35991 693.18068 L419.17589 686.40465 L414.44806 679.3173 L410.19028 671.9426 L406.41637 664.30451 L403.14017 656.427 L400.37551 648.33402 L398.13622 640.04954 L396.43616 631.59752 L395.28913 623.00192 L394.70899 614.28671 L394.63583 609.89173 L394.71561 605.1731 L395.34488 595.90968 L396.58032 586.88961 L398.39786 578.12682 L400.77341 569.6352 L403.68288 561.42866 L407.10218 553.52111 L411.00723 545.92646 L415.37394 538.6586 L420.17822 531.73146 L425.39599 525.15893 L431.00317 518.95492 L436.97566 513.13333 L443.28937 507.70808 L449.92023 502.69308 L456.84414 498.10221 L464.03702 493.9494 L471.47478 490.24855 L479.13333 487.01356 L486.98859 484.25835 L495.01648 481.99682 L503.19289 480.24287 L511.49376 479.01041 L519.89498 478.31335 L528.37248 478.16559 L536.90217 478.58105 L545.45996 479.57362 L554.02177 481.15721 L562.5635 483.34574 L571.06107 486.1531 L579.4904 489.59321 L587.82739 493.67996 L591.95374 495.97018 L595.72331 498.23103 L602.98084 503.09105 L609.85133 508.3822 L616.32096 514.08051 L622.3759 520.16203 L628.00229 526.60279 L633.18632 533.37882 L637.91414 540.46616 L642.17193 547.84086 L645.94584 555.47895 L649.22204 563.35647 L651.9867 571.44945 L654.22598 579.73393 L655.92605 588.18595 L657.07307 596.78155 L657.65321 605.49676 L657.72638 609.89173 L657.72638 741.43701 L657.64659 746.15564 L657.01733 755.41906 L655.78188 764.43913 L653.96434 773.20192 L651.5888 781.69354 L648.67933 789.90008 L645.26003 797.80763 L641.35498 805.40228 L636.98827 812.67014 L632.18398 819.59728 L626.96621 826.16981 L621.35904 832.37382 L615.38655 838.19541 L609.07283 843.62066 L602.44198 848.63567 L595.51807 853.22653 L588.32519 857.37934 L580.88743 861.08019 L573.22887 864.31518 L565.37361 867.07039 L557.34573 869.33192 L549.16931 871.08587 L540.86845 872.31833 L532.46722 873.01539 L523.98972 873.16315 L515.46003 872.74769 L506.90224 871.75512 L498.34044 870.17153 L489.79871 867.983 L481.30113 865.17564 L472.87181 861.73553 L464.53481 857.64878 L460.40847 855.35856 L456.63889 853.09771 L449.38137 848.23769 L442.51087 842.94654 L436.04124 837.24823 L429.98631 831.16671 L424.35991 824.72595 L419.17589 817.94992 L414.44806 810.86258 L410.19028 803.48788 L406.41637 795.84979 L403.14017 787.97227 L400.37551 779.87929 L398.13622 771.59481 L396.43616 763.14279 L395.28913 754.54719 L394.70899 745.83198 L394.63583 741.43701 L394.71561 736.71838 L395.34488 727.45495 L396.58032 718.43489 L398.39786 709.67209 L400.77341 701.18047 L403.68288 692.97394 L407.10218 685.06639 L411.00723 677.47173 L415.37394 670.20388 L420.17822 663.27673 L425.39599 656.7042 L431.00317 650.50019 L436.97566 644.67861 L443.28937 639.25336 L449.92023 634.23835 L456.84414 629.64749 L464.03702 625.49468 L471.47478 621.79383 L479.13333 618.55884 L486.98859 615.80363 L495.01648 613.54209 L503.19289 611.78814 L511.49376 610.55568 L519.89498 609.85862 L528.37248 609.71087 L536.90217 610.12632 L545.45996 611.11889 L554.02177 612.70249 L562.5635 614.89102 L571.06107 617.69838 L579.4904 621.13848 L587.82739 625.22524 L591.95374 627.51545 L595.72331 629.7763 L602.98084 634.63633 L609.85133 639.92748 L616.32096 645.62579 L622.3759 651.70731 L628.00229 658.14806 L633.18632 664.92409 L637.91414 672.01144 L642.17193 679.38614 L645.94584 687.02423 L649.22204 694.90174 L651.9867 702.99472 L654.22598 711.2792 L655.92605 719.73122 L657.07307 728.32682 L657.65321 737.04203 L657.72638 741.43701 L657.72638 872.98228 L657.64659 877.70091 L657.01733 886.96434 L655.78188 895.9844 L653.96434 904.7472 L651.5888 913.23882 L648.67933 921.44536 L645.26003 929.3529 L641.35498 936.94756 L636.98827 944.21541 L632.18398 951.14256 L626.96621 957.71509 L621.35904 963.9191 L615.38655 969.74068 L609.07283 975.16593 L602.44198 980.18094 L595.51807 984.7718 L588.32519 988.92461 L580.88743 992.62547 L573.22887 995.86045 L565.37361 998.61566 L557.34573 1000.8772 L549.16931 1002.63115 L540.86845 1003.86361 L532.46722 1004.56067 L523.98972 1004.70842 L515.46003 1004.29297 L506.90224 1003.3004 L498.34044 1001.7168 L489.79871 999.52828 L481.30113 996.72091 L472.87181 993.28081 L464.53481 989.19405 L460.40847 986.90384 L456.63889 984.64299 L449.38137 979.78296 L442.51087 974.49182 L436.04124 968.7935 L429.98631 962.71199 L424.35991 956.27123 L419.17589 949.4952 L414.44806 942.40785 L410.19028 935.03315 L406.41637 927.39506 L403.14017 919.51755 L400.37551 911.42457 L398.13622 903.14009 L396.43616 894.68807 L395.28913 886.09247 L394.70899 877.37726 L394.63583 872.98228 L394.71561 868.26365 L395.34488 859.00023 L396.58032 849.98016 L398.39786 841.21737 L400.77341 832.72575 L403.68288 824.51921 L407.10218 816.61166 L411.00723 809.01701 L415.37394 801.74916 L420.17822 794.82201 L425.39599 788.24948 L431.00317 782.04547 L436.97566 776.22389 L443.28937 770.79864 L449.92023 765.78363 L456.84414 761.19276 L464.03702 757.03995 L471.47478 753.3391 L479.13333 750.10412 L486.98859 747.3489 L495.01648 745.08737 L503.19289 743.33342 L511.49376 742.10096 L519.89498 741.4039 L528.37248 741.25614 L536.90217 741.6716 L545.45996 742.66417 L554.02177 744.24777 L562.5635 746.43629 L571.06107 749.24365 L579.4904 752.68376 L587.82739 756.77051 L591.95374 759.06073 L595.72331 761.32158 L602.98084 766.1816 L609.85133 771.47275 L616.32096 777.17107 L622.3759 783.25258 L628.00229 789.69334 L633.18632 796.46937 L637.91414 803.55672 L642.17193 810.93141 L645.94584 818.5695 L649.22204 826.44702 L651.9867 834.54 L654.22598 842.82448 L655.92605 851.2765 L657.07307 859.8721 L657.65321 868.58731 L657.72638 872.98228 L657.72638 1004.52756 L657.64659 1009.24619 L657.01733 1018.50961 L655.78188 1027.52968 L653.96434 1036.29247 L651.5888 1044.78409 L648.67933 1052.99063 L645.26003 1060.89818 L641.35498 1068.49283 L636.98827 1075.76069 L632.18398 1082.68783 L626.96621 1089.26036 L621.35904 1095.46437 L615.38655 1101.28596 L609.07283 1106.71121 L602.44198 1111.72622 L595.51807 1116.31708 L588.32519 1120.46989 L580.88743 1124.17074 L573.22887 1127.40573 L565.37361 1130.16094 L557.34573 1132.42248 L549.16931 1134.17642 L540.86845 1135.40888 L532.46722 1136.10594 L523.98972 1136.2537 L515.46003 1135.83825 L506.90224 1134.84567 L498.34044 1133.26208 L489.79871 1131.07355 L481.30113 1128.26619 L472.87181 1124.82608 L464.53481 1120.73933 L460.40847 1118.44911 L456.63889 1116.18826 L449.38137 1111.32824 L442.51087 1106.03709 L436.04124 1100.33878 L429.98631 1094.25726 L424.35991 1087.81651 L419.17589 1081.04047 L414.44806 1073.95313 L410.19028 1066.57843 L406.41637 1058.94034 L403.14017 1051.06283 L400.37551 1042.96985 L398.13622 1034.68536 L396.43616 1026.23334 L395.28913 1017.63774 L394.70899 1008.92253 L394.63583 1004.52756 L394.71561 999.80893 L395.34488 990.5455 L396.58032 981.52544 L398.39786 972.76264 L400.77341 964.27102 L403.68288 956.06449 L407.10218 948.15694 L411.00723 940.56228 L415.37394 933.29443 L420.17822 926.36729 L425.39599 919.79475 L431.00317 913.59074 L436.97566 907.76916 L443.28937 902.34391 L449.92023 897.3289 L456.84414 892.73804 L464.03702 888.58523 L471.47478 884.88438 L479.13333 881.64939 L486.98859 878.89418 L495.01648 876.63264 L503.19289 874.87869 L511.49376 873.64623 L519.89498 872.94917 L528.37248 872.80142 L536.90217 873.21687 L545.45996 874.20945 L554.02177 875.79304 L562.5635 877.98157 L571.06107 880.78893 L579.4904 884.22903 L587.82739 888.31579 L591.95374 890.60601 L595.72331 892.86686 L602.98084 897.72688 L609.85133 903.01803 L616.32096 908.71634 L622.3759 914.79786 L628.00229 921.23861 L633.18632 928.01464 L637.91414 935.10199 L642.17193 942.47669 L645.94584 950.11478 L649.22204 957.99229 L651.9867 966.08527 L654.22598 974.36975 L655.92605 982.82178 L657.07307 991.41737 L657.65321 1000.13259 L657.72638 1004.52756 L526.1811 1004.52756 L526.10132 1009.24619 L525.47205 1018.50961 L524.23661 1027.52968 L522.41907 1036.29247 L520.04352 1044.78409 L517.13405 1052.99063 L513.71475 1060.89818 L509.8097 1068.49283 L505.44299 1075.76069 L500.63871 1082.68783 L495.42093 1089.26036 L489.81376 1095.46437 L483.84127 1101.28596 L477.52756 1106.71121 L470.8967 1111.72622 L463.97279 1116.31708 L456.77991 1120.46989 L449.34215 1124.17074 L441.6836 1127.40573 L433.82834 1130.16094 L425.80045 1132.42248 L417.62404 1134.17642 L409.32317 1135.40888 L400.92195 1136.10594 L392.44444 1136.2537 L383.91476 1135.83825 L375.35697 1134.84567 L366.79516 1133.26208 L358.25343 1131.07355 L349.75586 1128.26619 L341.32653 1124.82608 L332.98954 1120.73933 L328.86319 1118.44911 L325.09362 1116.18826 L317.83609 1111.32824 L310.96559 1106.03709 L304.49596 1100.33878 L298.44103 1094.25726 L292.81464 1087.81651 L287.63061 1081.04047 L282.90279 1073.95313 L278.645 1066.57843 L274.87109 1058.94034 L271.59489 1051.06283 L268.83023 1042.96985 L266.59095 1034.68536 L264.89088 1026.23334 L263.74386 1017.63774 L263.16372 1008.92253 L263.09055 1004.52756 L263.17034 999.80893 L263.7996 990.5455 L265.03505 981.52544 L266.85259 972.76264 L269.22813 964.27102 L272.1376 956.06449 L275.5569 948.15694 L279.46195 940.56228 L283.82866 933.29443 L288.63295 926.36729 L293.85072 919.79475 L299.45789 913.59074 L305.43038 907.76916 L311.7441 902.34391 L318.37495 897.3289 L325.29886 892.73804 L332.49174 888.58523 L339.9295 884.88438 L347.58806 881.64939 L355.44332 878.89418 L363.4712 876.63264 L371.64762 874.87869 L379.94848 873.64623 L388.34971 872.94917 L396.82721 872.80142 L405.3569 873.21687 L413.91469 874.20945 L422.47649 875.79304 L431.01822 877.98157 L439.51579 880.78893 L447.94512 884.22903 L456.28212 888.31579 L460.40846 890.60601 L464.17804 892.86686 L471.43556 897.72688 L478.30606 903.01803 L484.77569 908.71634 L490.83062 914.79786 L496.45702 921.23861 L501.64104 928.01464 L506.36887 935.10199 L510.62665 942.47669 L514.40056 950.11478 L517.67676 957.99229 L520.44142 966.08527 L522.6807 974.36975 L524.38077 982.82178 L525.5278 991.41737 L526.10794 1000.13259 L526.1811 1004.52756" />
    <path d="M394.63583 1004.52756 L526.1811 1004.52756" />
    <path d="M526.1811 872.98228 L526.10132 877.70091 L525.47205 886.96434 L524.23661 895.9844 L522.41907 904.7472 L520.04352 913.23882 L517.13405 921.44536 L513.71475 929.3529 L509.8097 936.94756 L505.44299 944.21541 L500.63871 951.14256 L495.42093 957.71509 L489.81376 963.9191 L483.84127 969.74068 L477.52756 975.16593 L470.8967 980.18094 L463.97279 984.7718 L456.77991 988.92461 L449.34215 992.62547 L441.6836 995.86045 L433.82834 998.61566 L425.80045 1000.8772 L417.62404 1002.63115 L409.32317 1003.86361 L400.92195 1004.56067 L392.44444 1004.70842 L383.91476 1004.29297 L375.35697 1003.3004 L366.79516 1001.7168 L358.25343 999.52828 L349.75586 996.72091 L341.32653 993.28081 L332.98954 989.19405 L328.86319 986.90384 L325.09362 984.64299 L317.83609 979.78296 L310.96559 974.49182 L304.49596 968.7935 L298.44103 962.71199 L292.81464 956.27123 L287.63061 949.4952 L282.90279 942.40785 L278.645 935.03315 L274.87109 927.39506 L271.59489 919.51755 L268.83023 911.42457 L266.59095 903.14009 L264.89088 894.68807 L263.74386 886.09247 L263.16372 877.37726 L263.09055 872.98228 L263.17034 868.26365 L263.7996 859.00023 L265.03505 849.98016 L266.85259 841.21737 L269.22813 832.72575 L272.1376 824.51921 L275.5569 816.61166 L279.46195 809.01701 L283.82866 801.74916 L288.63295 794.82201 L293.85072 788.24948 L299.45789 782.04547 L305.43038 776.22389 L311.7441 770.79864 L318.37495 765.78363 L325.29886 761.19276 L332.49174 757.03995 L339.9295 753.3391 L347.58806 750.10412 L355.44332 747.3489 L363.4712 745.08737 L371.64762 743.33342 L379.94848 742.10096 L388.34971 741.4039 L396.82721 741.25614 L405.3569 741.6716 L413.91469 742.66417 L422.47649 744.24777 L431.01822 746.43629 L439.51579 749.24365 L447.94512 752.68376 L456.28212 756.77051 L460.40846 759.06073 L464.17804 761.32158 L471.43556 766.1816 L478.30606 771.47275 L484.77569 777.17107 L490.83062 783.25258 L496.45702 789.69334 L501.64104 796.46937 L506.36887 803.55672 L510.62665 810.93141 L514.40056 818.5695 L517.67676 826.44702 L520.44142 834.54 L522.6807 842.82448 L524.38077 851.2765 L525.5278 859.8721 L526.10794 868.58731 L526.1811 872.98228 L394.63583 872.98228 L394.63583 741.43701 L394.55604 746.15564 L393.92678 755.41906 L392.69133 764.43913 L390.87379 773.20192 L388.49825 781.69354 L385.58878 789.90008 L382.16948 797.80763 L378.26443 805.40228 L373.89772 812.67014 L369.09343 819.59728 L363.87566 826.16981 L358.26849 832.37382 L352.296 838.19541 L345.98228 843.62066 L339.35143 848.63567 L332.42751 853.22653 L325.23464 857.37934 L317.79688 861.08019 L310.13832 864.31518 L302.28306 867.07039 L294.25518 869.33192 L286.07876 871.08587 L277.7779 872.31833 L269.37667 873.01539 L260.89917 873.16315 L252.36948 872.74769 L243.81169 871.75512 L235.24989 870.17153 L226.70816 867.983 L218.21058 865.17564 L209.78126 861.73553 L201.44426 857.64878 L197.31792 855.35856 L193.54834 853.09771 L186.29081 848.23769 L179.42032 842.94654 L172.95069 837.24823 L166.89576 831.16671 L161.26936 824.72595 L156.08534 817.94992 L151.35751 810.86258 L147.09973 803.48788 L143.32582 795.84979 L140.04961 787.97227 L137.28496 779.87929 L135.04567 771.59481 L133.3456 763.14279 L132.19858 754.54719 L131.61844 745.83198 L131.54528 741.43701 L131.62506 736.71838 L132.25433 727.45495 L133.48977 718.43489 L135.30731 709.67209 L137.68286 701.18047 L140.59232 692.97394 L144.01163 685.06639 L147.91668 677.47173 L152.28339 670.20388 L157.08767 663.27673 L162.30544 656.7042 L167.91262 650.50019 L173.8851 644.67861 L180.19882 639.25336 L186.82968 634.23835 L193.75359 629.64749 L200.94647 625.49468 L208.38423 621.79383 L216.04278 618.55884 L223.89804 615.80363 L231.92592 613.54209 L240.10234 611.78814 L248.40321 610.55568 L256.80443 609.85862 L265.28193 609.71087 L273.81162 610.12632 L282.36941 611.11889 L290.93121 612.70249 L299.47295 614.89102 L307.97052 617.69838 L316.39985 621.13848 L324.73684 625.22524 L328.86319 627.51545 L332.63276 629.7763 L339.89029 634.63633 L346.76078 639.92748 L353.23041 645.62579 L359.28534 651.70731 L364.91174 658.14806 L370.09577 664.92409 L374.82359 672.01144 L379.08137 679.38614 L382.85529 687.02423 L386.13149 694.90174 L388.89615 702.99472 L391.13543 711.2792 L392.8355 719.73122 L393.98252 728.32682 L394.56266 737.04203 L394.63583 741.43701 L263.09055 741.43701 L263.09055 609.89173 L263.09055 478.34646" />
    <path d="M394.63583 478.34646 L394.63583 609.89173" />
    <path d="M394.63583 478.34646 L526.1811 478.34646 L526.10132 483.06509 L525.47205 492.32851 L524.23661 501.34858 L522.41907 510.11137 L520.04352 518.60299 L517.13405 526.80953 L513.71475 534.71708 L509.8097 542.31173 L505.44299 549.57958 L500.63871 556.50673 L495.42093 563.07926 L489.81376 569.28327 L483.84127 575.10485 L477.52756 580.5301 L470.8967 585.54511 L463.97279 590.13598 L456.77991 594.28879 L449.34215 597.98964 L441.6836 601.22462 L433.82834 603.97984 L425.80045 606.24137 L417.62404 607.99532 L409.32317 609.22778 L400.92195 609.92484 L392.44444 610.0726 L383.91476 609.65714 L375.35697 608.66457 L366.79516 607.08098 L358.25343 604.89245 L349.75586 602.08509 L341.32653 598.64498 L332.98954 594.55823 L328.86319 592.26801 L325.09362 590.00716 L317.83609 585.14714 L310.96559 579.85599 L304.49596 574.15767 L298.44103 568.07616 L292.81464 561.6354 L287.63061 554.85937 L282.90279 547.77202 L278.645 540.39733 L274.87109 532.75924 L271.59489 524.88172 L268.83023 516.78874 L266.59095 508.50426 L264.89088 500.05224 L263.74386 491.45664 L263.16372 482.74143 L263.09055 478.34646 L263.17034 473.62783 L263.7996 464.3644 L265.03505 455.34434 L266.85259 446.58154 L269.22813 438.08992 L272.1376 429.88338 L275.5569 421.97584 L279.46195 414.38118 L283.82866 407.11333 L288.63295 400.18618 L293.85072 393.61365 L299.45789 387.40964 L305.43038 381.58806 L311.7441 376.16281 L318.37495 371.1478 L325.29886 366.55694 L332.49174 362.40413 L339.9295 358.70327 L347.58806 355.46829 L355.44332 352.71308 L363.4712 350.45154 L371.64762 348.69759 L379.94848 347.46513 L388.34971 346.76807 L396.82721 346.62032 L405.3569 347.03577 L413.91469 348.02834 L422.47649 349.61194 L431.01822 351.80046 L439.51579 354.60783 L447.94512 358.04793 L456.28212 362.13469 L460.40846 364.4249 L464.17804 366.68575 L471.43556 371.54578 L478.30606 376.83692 L484.77569 382.53524 L490.83062 388.61675 L496.45702 395.05751 L501.64104 401.83354 L506.36887 408.92089 L510.62665 416.29559 L514.40056 423.93368 L517.67676 431.81119 L520.44142 439.90417 L522.6807 448.18865 L524.38077 456.64067 L525.5278 465.23627 L526.10794 473.95148 L526.1811 478.34646" />
    <path d="M657.72638 609.89173 L789.27165 609.89173 L789.19187 614.61036 L788.5626 623.87379 L787.32716 632.89385 L785.50962 641.65665 L783.13407 650.14827 L780.2246 658.3548 L776.8053 666.26235 L772.90025 673.85701 L768.53354 681.12486 L763.72926 688.05201 L758.51149 694.62454 L752.90431 700.82855 L746.93182 706.65013 L740.61811 712.07538 L733.98725 717.09039 L727.06334 721.68125 L719.87046 725.83406 L712.4327 729.53491 L704.77415 732.7699 L696.91889 735.52511 L688.891 737.78665 L680.71459 739.5406 L672.41372 740.77306 L664.0125 741.47012 L655.535 741.61787 L647.00531 741.20242 L638.44752 740.20985 L629.88571 738.62625 L621.34398 736.43772 L612.84641 733.63036 L604.41708 730.19026 L596.08009 726.1035 L591.95374 723.81329 L588.18417 721.55244 L580.92664 716.69241 L574.05615 711.40126 L567.58652 705.70295 L561.53159 699.62143 L555.90519 693.18068 L550.72116 686.40465 L545.99334 679.3173 L541.73555 671.9426 L537.96164 664.30451 L534.68544 656.427 L531.92078 648.33402 L529.6815 640.04954 L527.98143 631.59752 L526.83441 623.00192 L526.25427 614.28671 L526.1811 609.89173 L526.26089 605.1731 L526.89015 595.90968 L528.1256 586.88961 L529.94314 578.12682 L532.31868 569.6352 L535.22815 561.42866 L538.64745 553.52111 L542.5525 545.92646 L546.91921 538.6586 L551.7235 531.73146 L556.94127 525.15893 L562.54844 518.95492 L568.52093 513.13333 L574.83465 507.70808 L581.4655 502.69308 L588.38941 498.10221 L595.58229 493.9494 L603.02005 490.24855 L610.67861 487.01356 L618.53387 484.25835 L626.56175 481.99682 L634.73817 480.24287 L643.03903 479.01041 L651.44026 478.31335 L659.91776 478.16559 L668.44745 478.58105 L677.00524 479.57362 L685.56704 481.15721 L694.10877 483.34574 L702.60635 486.1531 L711.03567 489.59321 L719.37267 493.67996 L723.49901 495.97018 L727.26859 498.23103 L734.52611 503.09105 L741.39661 508.3822 L747.86624 514.08051 L753.92117 520.16203 L759.54757 526.60279 L764.73159 533.37882 L769.45942 540.46616 L773.7172 547.84086 L777.49111 555.47895 L780.76731 563.35647 L783.53197 571.44945 L785.77126 579.73393 L787.47133 588.18595 L788.61835 596.78155 L789.19849 605.49676 L789.27165 609.89173 L789.19187 614.61036 L788.5626 623.87379 L787.32716 632.89385 L785.50962 641.65665 L783.13407 650.14827 L780.2246 658.3548 L776.8053 666.26235 L772.90025 673.85701 L768.53354 681.12486 L763.72926 688.05201 L758.51149 694.62454 L752.90431 700.82855 L746.93182 706.65013 L740.61811 712.07538 L733.98725 717.09039 L727.06334 721.68125 L719.87046 725.83406 L712.4327 729.53491 L704.77415 732.7699 L696.91889 735.52511 L688.891 737.78665 L680.71459 739.5406 L672.41372 740.77306 L664.0125 741.47012 L655.535 741.61787 L647.00531 741.20242 L638.44752 740.20985 L629.88571 738.62625 L621.34398 736.43772 L612.84641 733.63036 L604.41708 730.19026 L596.08009 726.1035 L591.95374 723.81329 L588.18417 721.55244 L580.92664 716.69241 L574.05615 711.40126 L567.58652 705.70295 L561.53159 699.62143 L555.90519 693.18068 L550.72116 686.40465 L545.99334 679.3173 L541.73555 671.9426 L537.96164 664.30451 L534.68544 656.427 L531.92078 648.33402 L529.6815 640.04954 L527.98143 631.59752 L526.83441 623.00192 L526.25427 614.28671 L526.1811 609.89173 L526.26089 605.1731 L526.89015 595.90968 L528.1256 586.88961 L529.94314 578.12682 L532.31868 569.6352 L535.22815 561.42866 L538.64745 553.52111 L542.5525 545.92646 L546.91921 538.6586 L551.7235 531.73146 L556.94127 525.15893 L562.54844 518.95492 L568.52093 513.13333 L574.83465 507.70808 L581.4655 502.69308 L588.38941 498.10221 L595.58229 493.9494 L603.02005 490.24855 L610.67861 487.01356 L618.53387 484.25835 L626.56175 481.99682 L634.73817 480.24287 L643.03903 479.01041 L651.44026 478.31335 L659.91776 478.16559 L668.44745 478.58105 L677.00524 479.57362 L685.56704 481.15721 L694.10877 483.34574 L702.60635 486.1531 L711.03567 489.59321 L719.37267 493.67996 L723.49901 495.97018 L727.26859 498.23103 L734.52611 503.09105 L741.39661 508.3822 L747.86624 514.08051 L753.92117 520.16203 L759.54757 526.60279 L764.73159 533.37882 L769.45942 540.46616 L773.7172 547.84086 L777.49111 555.47895 L780.76731 563.35647 L783.53197 571.44945 L785.77126 579.73393 L787.47133 588.18595 L788.61835 596.78155 L789.19849 605.49676 L789.27165 609.89173 L789.27165 478.34646" />
    <path d="M789.27165 609.89173 L789.19187 614.61036 L788.5626 623.87379 L787.32716 632.89385 L785.50962 641.65665 L783.13407 650.14827 L780.2246 658.3548 L776.8053 666.26235 L772.90025 673.85701 L768.53354 681.12486 L763.72926 688.05201 L758.51149 694.62454 L752.90431 700.82855 L746.93182 706.65013 L740.61811 712.07538 L733.98725 717.09039 L727.06334 721.68125 L719.87046 725.83406 L712.4327 729.53491 L704.77415 732.7699 L696.91889 735.52511 L688.891 737.78665 L680.71459 739.5406 L672.41372 740.77306 L664.0125 741.47012 L655.535 741.61787 L647.00531 741.20242 L638.44752 740.20985 L629.88571 738.62625 L621.34398 736.43772 L612.84641 733.63036 L604.41708 730.19026 L596.08009 726.1035 L591.95374 723.81329 L588.18417 721.55244 L580.92664 716.69241 L574.05615 711.40126 L567.58652 705.70295 L561.53159 699.62143 L555.90519 693.18068 L550.72116 686.40465 L545.99334 679.3173 L541.73555 671.9426 L537.96164 664.30451 L534.68544 656.427 L531.92078 648.33402 L529.6815 640.04954 L527.98143 631.59752 L526.83441 623.00192 L526.25427 614.28671 L526.1811 609.89173 L526.26089 605.1731 L526.89015 595.90968 L528.1256 586.88961 L529.94314 578.12682 L532.31868 569.6352 L535.22815 561.42866 L538.64745 553.52111 L542.5525 545.92646 L546.91921 538.6586 L551.7235 531.73146 L556.94127 525.15893 L562.54844 518.95492 L568.52093 513.13333 L574.83465 507.70808 L581.4655 502.69308 L588.38941 498.10221 L595.58229 493.9494 L603.02005 490.24855 L610.67861 487.01356 L618.53387 484.25835 L626.56175 481.99682 L634.73817 480.24287 L643.03903 479.01041 L651.44026 478.31335 L659.91776 478.16559 L668.44745 478.58105 L677.00524 479.57362 L685.56704 481.15721 L694.10877 483.34574 L702.60635 486.1531 L711.03567 489.59321 L719.37267 493.67996 L723.49901 495.97018 L727.26859 498.23103 L734.52611 503.09105 L741.39661 508.3822 L747.86624 514.08051 L753.92117 520.16203 L759.54757 526.60279 L764.73159 533.37882 L769.45942 540.46616 L773.7172 547.84086 L777.49111 555.47895 L780.76731 563.35647 L783.53197 571.44945 L785.77126 579.73393 L787.47133 588.18595 L788.61835 596.78155 L789.19849 605.49676 L789.27165 609.89173" />
    <path d="M920.81693 609.89173 L920.73714 614.61036 L920.10788 623.87379 L918.87243 632.89385 L917.05489 641.65665 L914.67935 650.14827 L911.76988 658.3548 L908.35058 666.26235 L904.44553 673.85701 L900.07882 681.12486 L895.27453 688.05201 L890.05676 694.62454 L884.44959 700.82855 L878.4771 706.65013 L872.16339 712.07538 L865.53253 717.09039 L858.60862 721.68125 L851.41574 725.83406 L843.97798 729.53492 L836.31943 732.7699 L828.46416 735.52511 L820.43628 737.78665 L812.25986 739.5406 L803.959 740.77306 L795.55777 741.47012 L787.08027 741.61787 L778.55058 741.20242 L769.9928 740.20985 L761.43099 738.62625 L752.88926 736.43773 L744.39169 733.63036 L735.96236 730.19026 L727.62536 726.1035 L723.49902 723.81329 L719.72944 721.55244 L712.47192 716.69242 L705.60142 711.40127 L699.13179 705.70295 L693.07686 699.62144 L687.45046 693.18068 L682.26644 686.40465 L677.53861 679.3173 L673.28083 671.9426 L669.50692 664.30451 L666.23072 656.427 L663.46606 648.33402 L661.22678 640.04954 L659.52671 631.59752 L658.37968 623.00192 L657.79954 614.28671 L657.72638 609.89173 L657.80616 605.1731 L658.43543 595.90968 L659.67087 586.88961 L661.48841 578.12682 L663.86396 569.6352 L666.77343 561.42866 L670.19273 553.52111 L674.09778 545.92646 L678.46449 538.6586 L683.26877 531.73146 L688.48655 525.15893 L694.09372 518.95492 L700.06621 513.13333 L706.37992 507.70808 L713.01078 502.69307 L719.93469 498.10221 L727.12757 493.9494 L734.56533 490.24855 L742.22388 487.01356 L750.07914 484.25835 L758.10703 481.99682 L766.28344 480.24287 L774.58431 479.01041 L782.98553 478.31335 L791.46303 478.16559 L799.99272 478.58104 L808.55051 479.57362 L817.11232 481.15721 L825.65405 483.34574 L834.15162 486.1531 L842.58095 489.59321 L850.91794 493.67996 L855.04429 495.97018 L858.81386 498.23103 L866.07139 503.09105 L872.94188 508.3822 L879.41152 514.08051 L885.46645 520.16203 L891.09284 526.60278 L896.27687 533.37882 L901.00469 540.46616 L905.26248 547.84086 L909.03639 555.47895 L912.31259 563.35647 L915.07725 571.44945 L917.31653 579.73393 L919.0166 588.18595 L920.16362 596.78155 L920.74376 605.49676 L920.81693 609.89173" />
    <path d="M920.81693 741.43701 L920.73714 746.15564 L920.10788 755.41906 L918.87243 764.43913 L917.05489 773.20192 L914.67935 781.69354 L911.76988 789.90008 L908.35058 797.80763 L904.44553 805.40228 L900.07882 812.67014 L895.27453 819.59728 L890.05676 826.16981 L884.44959 832.37382 L878.4771 838.19541 L872.16339 843.62066 L865.53253 848.63567 L858.60862 853.22653 L851.41574 857.37934 L843.97798 861.08019 L836.31943 864.31518 L828.46416 867.07039 L820.43628 869.33193 L812.25986 871.08587 L803.959 872.31833 L795.55777 873.01539 L787.08027 873.16315 L778.55058 872.7477 L769.9928 871.75512 L761.43099 870.17153 L752.88926 867.983 L744.39169 865.17564 L735.96236 861.73553 L727.62536 857.64878 L723.49902 855.35856 L719.72944 853.09771 L712.47192 848.23769 L705.60142 842.94654 L699.13179 837.24823 L693.07686 831.16671 L687.45046 824.72596 L682.26644 817.94992 L677.53861 810.86258 L673.28083 803.48788 L669.50692 795.84979 L666.23072 787.97227 L663.46606 779.8793 L661.22678 771.59481 L659.52671 763.14279 L658.37968 754.54719 L657.79954 745.83198 L657.72638 741.43701 L657.80616 736.71838 L658.43543 727.45495 L659.67087 718.43489 L661.48841 709.67209 L663.86396 701.18047 L666.77343 692.97394 L670.19273 685.06639 L674.09778 677.47173 L678.46449 670.20388 L683.26877 663.27673 L688.48655 656.7042 L694.09372 650.50019 L700.06621 644.67861 L706.37992 639.25336 L713.01078 634.23835 L719.93469 629.64749 L727.12757 625.49468 L734.56533 621.79382 L742.22388 618.55884 L750.07914 615.80363 L758.10703 613.54209 L766.28344 611.78814 L774.58431 610.55568 L782.98553 609.85862 L791.46303 609.71087 L799.99272 610.12632 L808.55051 611.11889 L817.11232 612.70249 L825.65405 614.89101 L834.15162 617.69838 L842.58095 621.13848 L850.91794 625.22524 L855.04429 627.51545 L858.81386 629.7763 L866.07139 634.63632 L872.94188 639.92747 L879.41152 645.62579 L885.46645 651.7073 L891.09284 658.14806 L896.27687 664.92409 L901.00469 672.01144 L905.26248 679.38614 L909.03639 687.02423 L912.31259 694.90174 L915.07725 702.99472 L917.31653 711.2792 L919.0166 719.73122 L920.16362 728.32682 L920.74376 737.04203 L920.81693 741.43701" />
    <path d="M789.27165 741.43701 L789.19187 746.15564 L788.5626 755.41906 L787.32716 764.43913 L785.50962 773.20192 L783.13407 781.69354 L780.2246 789.90008 L776.8053 797.80763 L772.90025 805.40228 L768.53354 812.67014 L763.72926 819.59728 L758.51149 826.16981 L752.90431 832.37382 L746.93182 838.19541 L740.61811 843.62066 L733.98725 848.63567 L727.06334 853.22653 L719.87046 857.37934 L712.4327 861.08019 L704.77415 864.31518 L696.91889 867.07039 L688.891 869.33192 L680.71459 871.08587 L672.41372 872.31833 L664.0125 873.01539 L655.535 873.16315 L647.00531 872.74769 L638.44752 871.75512 L629.88571 870.17153 L621.34398 867.983 L612.84641 865.17564 L604.41708 861.73553 L596.08009 857.64878 L591.95374 855.35856 L588.18417 853.09771 L580.92664 848.23769 L574.05615 842.94654 L567.58652 837.24823 L561.53159 831.16671 L555.90519 824.72595 L550.72116 817.94992 L545.99334 810.86258 L541.73555 803.48788 L537.96164 795.84979 L534.68544 787.97227 L531.92078 779.87929 L529.6815 771.59481 L527.98143 763.14279 L526.83441 754.54719 L526.25427 745.83198 L526.1811 741.43701 L526.26089 736.71838 L526.89015 727.45495 L528.1256 718.43489 L529.94314 709.67209 L532.31868 701.18047 L535.22815 692.97394 L538.64745 685.06639 L542.5525 677.47173 L546.91921 670.20388 L551.7235 663.27673 L556.94127 656.7042 L562.54844 650.50019 L568.52093 644.67861 L574.83465 639.25336 L581.4655 634.23835 L588.38941 629.64749 L595.58229 625.49468 L603.02005 621.79383 L610.67861 618.55884 L618.53387 615.80363 L626.56175 613.54209 L634.73817 611.78814 L643.03903 610.55568 L651.44026 609.85862 L659.91776 609.71087 L668.44745 610.12632 L677.00524 611.11889 L685.56704 612.70249 L694.10877 614.89102 L702.60635 617.69838 L711.03567 621.13848 L719.37267 625.22524 L723.49901 627.51545 L727.26859 629.7763 L734.52611 634.63633 L741.39661 639.92748 L747.86624 645.62579 L753.92117 651.70731 L759.54757 658.14806 L764.73159 664.92409 L769.45942 672.01144 L773.7172 679.38614 L777.49111 687.02423 L780.76731 694.90174 L783.53197 702.99472 L785.77126 711.2792 L787.47133 719.73122 L788.61835 728.32682 L789.19849 737.04203 L789.27165 741.43701 L789.19187 746.15564 L788.5626 755.41906 L787.32716 764.43913 L785.50962 773.20192 L783.13407 781.69354 L780.2246 789.90008 L776.8053 797.80763 L772.90025 805.40228 L768.53354 812.67014 L763.72926 819.59728 L758.51149 826.16981 L752.90431 832.37382 L746.93182 838.19541 L740.61811 843.62066 L733.98725 848.63567 L727.06334 853.22653 L719.87046 857.37934 L712.4327 861.08019 L704.77415 864.31518 L696.91889 867.07039 L688.891 869.33192 L680.71459 871.08587 L672.41372 872.31833 L664.0125 873.01539 L655.535 873.16315 L647.00531 872.74769 L638.44752 871.75512 L629.88571 870.17153 L621.34398 867.983 L612.84641 865.17564 L604.41708 861.73553 L596.08009 857.64878 L591.95374 855.35856 L588.18417 853.09771 L580.92664 848.23769 L574.05615 842.94654 L567.58652 837.24823 L561.53159 831.16671 L555.90519 824.72595 L550.72116 817.94992 L545.99334 810.86258 L541.73555 803.48788 L537.96164 795.84979 L534.68544 787.97227 L531.92078 779.87929 L529.6815 771.59481 L527.98143 763.14279 L526.83441 754.54719 L526.25427 745.83198 L526.1811 741.43701 L526.26089 736.71838 L526.89015 727.45495 L528.1256 718.43489 L529.94314 709.67209 L532.31868 701.18047 L535.22815 692.97394 L538.64745 685.06639 L542.5525 677.47173 L546.91921 670.20388 L551.7235 663.27673 L556.94127 656.7042 L562.54844 650.50019 L568.52093 644.67861 L574.83465 639.25336 L581.4655 634.23835 L588.38941 629.64749 L595.58229 625.49468 L603.02005 621.79383 L610.67861 618.55884 L618.53387 615.80363 L626.56175 613.54209 L634.73817 611.78814 L643.03903 610.55568 L651.44026 609.85862 L659.91776 609.71087 L668.44745 610.12632 L677.00524 611.11889 L685.56704 612.70249 L694.10877 614.89102 L702.60635 617.69838 L711.03567 621.13848 L719.37267 625.22524 L723.49901 627.51545 L727.26859 629.7763 L734.52611 634.63633 L741.39661 639.92748 L747.86624 645.62579 L753.92117 651.70731 L759.54757 658.14806 L764.73159 664.92409 L769.45942 672.01144 L773.7172 679.38614 L777.49111 687.02423 L780.76731 694.90174 L783.53197 702.99472 L785.77126 711.2792 L787.47133 719.73122 L788.61835 728.32682 L789.19849 737.04203 L789.27165 741.43701 L657.72638 741.43701" />
    <path d="M789.27165 741.43701 L789.27165 872.98228 L789.19187 877.70091 L788.5626 886.96434 L787.32716 895.9844 L785.50962 904.7472 L783.13407 913.23882 L780.2246 921.44536 L776.8053 929.3529 L772.90025 936.94756 L768.53354 944.21541 L763.72926 951.14256 L758.51149 957.71509 L752.90431 963.9191 L746.93182 969.74068 L740.61811 975.16593 L733.98725 980.18094 L727.06334 984.7718 L719.87046 988.92461 L712.4327 992.62547 L704.77415 995.86045 L696.91889 998.61566 L688.891 1000.8772 L680.71459 1002.63115 L672.41372 1003.86361 L664.0125 1004.56067 L655.535 1004.70842 L647.00531 1004.29297 L638.44752 1003.3004 L629.88571 1001.7168 L621.34398 999.52828 L612.84641 996.72091 L604.41708 993.28081 L596.08009 989.19405 L591.95374 986.90384 L588.18417 984.64299 L580.92664 979.78296 L574.05615 974.49182 L567.58652 968.7935 L561.53159 962.71199 L555.90519 956.27123 L550.72116 949.4952 L545.99334 942.40785 L541.73555 935.03315 L537.96164 927.39506 L534.68544 919.51755 L531.92078 911.42457 L529.6815 903.14009 L527.98143 894.68807 L526.83441 886.09247 L526.25427 877.37726 L526.1811 872.98228 L526.26089 868.26365 L526.89015 859.00023 L528.1256 849.98016 L529.94314 841.21737 L532.31868 832.72575 L535.22815 824.51921 L538.64745 816.61166 L542.5525 809.01701 L546.91921 801.74916 L551.7235 794.82201 L556.94127 788.24948 L562.54844 782.04547 L568.52093 776.22389 L574.83465 770.79864 L581.4655 765.78363 L588.38941 761.19276 L595.58229 757.03995 L603.02005 753.3391 L610.67861 750.10412 L618.53387 747.3489 L626.56175 745.08737 L634.73817 743.33342 L643.03903 742.10096 L651.44026 741.4039 L659.91776 741.25614 L668.44745 741.6716 L677.00524 742.66417 L685.56704 744.24777 L694.10877 746.43629 L702.60635 749.24365 L711.03567 752.68376 L719.37267 756.77051 L723.49901 759.06073 L727.26859 761.32158 L734.52611 766.1816 L741.39661 771.47275 L747.86624 777.17107 L753.92117 783.25258 L759.54757 789.69334 L764.73159 796.46937 L769.45942 803.55672 L773.7172 810.93141 L777.49111 818.5695 L780.76731 826.44702 L783.53197 834.54 L785.77126 842.82448 L787.47133 851.2765 L788.61835 859.8721 L789.19849 868.58731 L789.27165 872.98228 L789.27165 1004.52756 L789.19187 1009.24619 L788.5626 1018.50961 L787.32716 1027.52968 L785.50962 1036.29247 L783.13407 1044.78409 L780.2246 1052.99063 L776.8053 1060.89818 L772.90025 1068.49283 L768.53354 1075.76069 L763.72926 1082.68783 L758.51149 1089.26036 L752.90431 1095.46437 L746.93182 1101.28596 L740.61811 1106.71121 L733.98725 1111.72622 L727.06334 1116.31708 L719.87046 1120.46989 L712.4327 1124.17074 L704.77415 1127.40573 L696.91889 1130.16094 L688.891 1132.42248 L680.71459 1134.17642 L672.41372 1135.40888 L664.0125 1136.10594 L655.535 1136.2537 L647.00531 1135.83825 L638.44752 1134.84567 L629.88571 1133.26208 L621.34398 1131.07355 L612.84641 1128.26619 L604.41708 1124.82608 L596.08009 1120.73933 L591.95374 1118.44911 L588.18417 1116.18826 L580.92664 1111.32824 L574.05615 1106.03709 L567.58652 1100.33878 L561.53159 1094.25726 L555.90519 1087.81651 L550.72116 1081.04047 L545.99334 1073.95313 L541.73555 1066.57843 L537.96164 1058.94034 L534.68544 1051.06283 L531.92078 1042.96985 L529.6815 1034.68536 L527.98143 1026.23334 L526.83441 1017.63774 L526.25427 1008.92253 L526.1811 1004.52756 L526.26089 999.80893 L526.89015 990.5455 L528.1256 981.52544 L529.94314 972.76264 L532.31868 964.27102 L535.22815 956.06449 L538.64745 948.15694 L542.5525 940.56228 L546.91921 933.29443 L551.7235 926.36729 L556.94127 919.79475 L562.54844 913.59074 L568.52093 907.76916 L574.83465 902.34391 L581.4655 897.3289 L588.38941 892.73804 L595.58229 888.58523 L603.02005 884.88438 L610.67861 881.64939 L618.53387 878.89418 L626.56175 876.63264 L634.73817 874.87869 L643.03903 873.64623 L651.44026 872.94917 L659.91776 872.80142 L668.44745 873.21687 L677.00524 874.20945 L685.56704 875.79304 L694.10877 877.98157 L702.60635 880.78893 L711.03567 884.22903 L719.37267 888.31579 L723.49901 890.60601 L727.26859 892.86686 L734.52611 897.72688 L741.39661 903.01803 L747.86624 908.71634 L753.92117 914.79786 L759.54757 921.23861 L764.73159 928.01464 L769.45942 935.10199 L773.7172 942.47669 L777.49111 950.11478 L780.76731 957.99229 L783.53197 966.08527 L785.77126 974.36975 L787.47133 982.82178 L788.61835 991.41737 L789.19849 1000.13259 L789.27165 1004.52756" />
    <path d="M920.81693 872.98228 L920.73714 877.70091 L920.10788 886.96434 L918.87243 895.9844 L917.05489 904.7472 L914.67935 913.23882 L911.76988 921.44536 L908.35058 929.3529 L904.44553 936.94756 L900.07882 944.21541 L895.27453 951.14256 L890.05676 957.71509 L884.44959 963.9191 L878.4771 969.74068 L872.16339 975.16593 L865.53253 980.18094 L858.60862 984.7718 L851.41574 988.92462 L843.97798 992.62547 L836.31943 995.86045 L828.46416 998.61567 L820.43628 1000.8772 L812.25986 1002.63115 L803.959 1003.86361 L795.55777 1004.56067 L787.08027 1004.70843 L778.55058 1004.29297 L769.9928 1003.3004 L761.43099 1001.7168 L752.88926 999.52828 L744.39169 996.72092 L735.96236 993.28081 L727.62536 989.19406 L723.49902 986.90384 L719.72944 984.64299 L712.47192 979.78297 L705.60142 974.49182 L699.13179 968.7935 L693.07686 962.71199 L687.45046 956.27123 L682.26644 949.4952 L677.53861 942.40785 L673.28083 935.03315 L669.50692 927.39507 L666.23072 919.51755 L663.46606 911.42457 L661.22678 903.14009 L659.52671 894.68807 L658.37968 886.09247 L657.79954 877.37726 L657.72638 872.98228 L657.80616 868.26365 L658.43543 859.00023 L659.67087 849.98016 L661.48841 841.21737 L663.86396 832.72575 L666.77343 824.51921 L670.19273 816.61166 L674.09778 809.01701 L678.46449 801.74916 L683.26877 794.82201 L688.48655 788.24948 L694.09372 782.04547 L700.06621 776.22389 L706.37992 770.79864 L713.01078 765.78363 L719.93469 761.19276 L727.12757 757.03995 L734.56533 753.3391 L742.22388 750.10411 L750.07914 747.3489 L758.10703 745.08737 L766.28344 743.33342 L774.58431 742.10096 L782.98553 741.4039 L791.46303 741.25614 L799.99272 741.6716 L808.55051 742.66417 L817.11232 744.24776 L825.65405 746.43629 L834.15162 749.24365 L842.58095 752.68376 L850.91794 756.77051 L855.04429 759.06073 L858.81386 761.32158 L866.07139 766.1816 L872.94188 771.47275 L879.41152 777.17106 L885.46645 783.25258 L891.09284 789.69333 L896.27687 796.46937 L901.00469 803.55671 L905.26248 810.93141 L909.03639 818.5695 L912.31259 826.44702 L915.07725 834.54 L917.31653 842.82448 L919.0166 851.2765 L920.16362 859.8721 L920.74376 868.58731 L920.81693 872.98228" />
    <path d="M526.1811 872.98228 L526.10132 877.70091 L525.47205 886.96434 L524.23661 895.9844 L522.41907 904.7472 L520.04352 913.23882 L517.13405 921.44536 L513.71475 929.3529 L509.8097 936.94756 L505.44299 944.21541 L500.63871 951.14256 L495.42093 957.71509 L489.81376 963.9191 L483.84127 969.74068 L477.52756 975.16593 L470.8967 980.18094 L463.97279 984.7718 L456.77991 988.92461 L449.34215 992.62547 L441.6836 995.86045 L433.82834 998.61566 L425.80045 1000.8772 L417.62404 1002.63115 L409.32317 1003.86361 L400.92195 1004.56067 L392.44444 1004.70842 L383.91476 1004.29297 L375.35697 1003.3004 L366.79516 1001.7168 L358.25343 999.52828 L349.75586 996.72091 L341.32653 993.28081 L332.98954 989.19405 L328.86319 986.90384 L325.09362 984.64299 L317.83609 979.78296 L310.96559 974.49182 L304.49596 968.7935 L298.44103 962.71199 L292.81464 956.27123 L287.63061 949.4952 L282.90279 942.40785 L278.645 935.03315 L274.87109 927.39506 L271.59489 919.51755 L268.83023 911.42457 L266.59095 903.14009 L264.89088 894.68807 L263.74386 886.09247 L263.16372 877.37726 L263.09055 872.98228 L263.17034 868.26365 L263.7996 859.00023 L265.03505 849.98016 L266.85259 841.21737 L269.22813 832.72575 L272.1376 824.51921 L275.5569 816.61166 L279.46195 809.01701 L283.82866 801.74916 L288.63295 794.82201 L293.85072 788.24948 L299.45789 782.04547 L305.43038 776.22389 L311.7441 770.79864 L318.37495 765.78363 L325.29886 761.19276 L332.49174 757.03995 L339.9295 753.3391 L347.58806 750.10412 L355.44332 747.3489 L363.4712 745.08737 L371.64762 743.33342 L379.94848 742.10096 L388.34971 741.4039 L396.82721 741.25614 L405.3569 741.6716 L413.91469 742.66417 L422.47649 744.24777 L431.01822 746.43629 L439.51579 749.24365 L447.94512 752.68376 L456.28212 756.77051 L460.40846 759.06073 L464.17804 761.32158 L471.43556 766.1816 L478.30606 771.47275 L484.77569 777.17107 L490.83062 783.25258 L496.45702 789.69334 L501.64104 796.46937 L506.36887 803.55672 L510.62665 810.93141 L514.40056 818.5695 L517.67676 826.44702 L520.44142 834.54 L522.6807 842.82448 L524.38077 851.2765 L525.5278 859.8721 L526.10794 868.58731 L526.1811 872.98228 L394.63583 872.98228" />
    <path d="M394.63583 741.43701 L394.55604 746.15564 L393.92678 755.41906 L392.69133 764.43913 L390.87379 773.20192 L388.49825 781.69354 L385.58878 789.90008 L382.16948 797.80763 L378.26443 805.40228 L373.89772 812.67014 L369.09343 819.59728 L363.87566 826.16981 L358.26849 832.37382 L352.296 838.19541 L345.98228 843.62066 L339.35143 848.63567 L332.42751 853.22653 L325.23464 857.37934 L317.79688 861.08019 L310.13832 864.31518 L302.28306 867.07039 L294.25518 869.33192 L286.07876 871.08587 L277.7779 872.31833 L269.37667 873.01539 L260.89917 873.16315 L252.36948 872.74769 L243.81169 871.75512 L235.24989 870.17153 L226.70816 867.983 L218.21058 865.17564 L209.78126 861.73553 L201.44426 857.64878 L197.31792 855.35856 L193.54834 853.09771 L186.29081 848.23769 L179.42032 842.94654 L172.95069 837.24823 L166.89576 831.16671 L161.26936 824.72595 L156.08534 817.94992 L151.35751 810.86258 L147.09973 803.48788 L143.32582 795.84979 L140.04961 787.97227 L137.28496 779.87929 L135.04567 771.59481 L133.3456 763.14279 L132.19858 754.54719 L131.61844 745.83198 L131.54528 741.43701 L131.62506 736.71838 L132.25433 727.45495 L133.48977 718.43489 L135.30731 709.67209 L137.68286 701.18047 L140.59232 692.97394 L144.01163 685.06639 L147.91668 677.47173 L152.28339 670.20388 L157.08767 663.27673 L162.30544 656.7042 L167.91262 650.50019 L173.8851 644.67861 L180.19882 639.25336 L186.82968 634.23835 L193.75359 629.64749 L200.94647 625.49468 L208.38423 621.79383 L216.04278 618.55884 L223.89804 615.80363 L231.92592 613.54209 L240.10234 611.78814 L248.40321 610.55568 L256.80443 609.85862 L265.28193 609.71087 L273.81162 610.12632 L282.36941 611.11889 L290.93121 612.70249 L299.47295 614.89102 L307.97052 617.69838 L316.39985 621.13848 L324.73684 625.22524 L328.86319 627.51545 L332.63276 629.7763 L339.89029 634.63633 L346.76078 639.92748 L353.23041 645.62579 L359.28534 651.70731 L364.91174 658.14806 L370.09577 664.92409 L374.82359 672.01144 L379.08137 679.38614 L382.85529 687.02423 L386.13149 694.90174 L388.89615 702.99472 L391.13543 711.2792 L392.8355 719.73122 L393.98252 728.32682 L394.56266 737.04203 L394.63583 741.43701" />
    <path d="M263.09055 741.43701 L263.09055 872.98228" />
    <path d="M263.09055 1004.52756 L394.63583 1004.52756" />
  </g>
</svg>