<?xml version="1.0" standalone="no"?>
<!DOCTYPE svg PUBLIC "-//W3C//DTD SVG 1.1//EN" 
    "http://www.w3.org/Graphics/SVG/1.1/DTD/svg11.dtd">
<svg width="29.7cm" height="42cm"
    xmlns="http://www.w3.org/2000/svg" version="1.1" viewBox="0 0 1052.3622 1488.18898">
  <g fill="none" stroke="black" stroke-width="0.1cm" stroke-linejoin="round" stroke-linecap="round">
    <path d="M394.63583 372.04724 L394.55604 376.76587 L393.92678 386.0293 L392.69133 395.04936 L390.87379 403.81216 L388.49825 412.30378 L385.58878 420.51032 L382.16948 428.41786 L378.26443 436.01252 L373.89772 443.28037 L369.09343 450.20752 L363.87566 456.78005 L358.26849 462.98406 L352.296 468.80564 L345.98228 474.23089 L339.35143 479.2459 L332.42751 483.83676 L325.23464 487.98958 L317.79688 491.69043 L310.13832 494.92541 L302.28306 497.68063 L294.25518 499.94216 L286.07876 501.69611 L277.7779 502.92857 L269.37667 503.62563 L260.89917 503.77338 L252.36948 503.35793 L243.81169 502.36536 L235.24989 500.78176 L226.70816 498.59324 L218.21058 495.78587 L209.78126 492.34577 L201.44426 488.25901 L197.31792 485.9688 L193.54834 483.70795 L186.29081 478.84793 L179.42032 473.55678 L172.95069 467.85846 L166.89576 461.77695 L161.26936 455.33619 L156.08534 448.56016 L151.35751 441.47281 L147.09973 434.09811 L143.32582 426.46003 L140.04961 418.58251 L137.28496 410.48953 L135.04567 402.20505 L133.3456 393.75303 L132.19858 385.15743 L131.61844 376.44222 L131.54528 372.04724 L131.62506 367.32862 L132.25433 358.06519 L133.48977 349.04512 L135.30731 340.28233 L137.68286 331.79071 L140.59232 323.58417 L144.01163 315.67662 L147.91668 308.08197 L152.28339 300.81412 L157.08767 293.88697 L162.30544 287.31444 L167.91262 281.11043 L173.8851 275.28885 L180.19882 269.8636 L186.82968 264.84859 L193.75359 260.25772 L200.94647 256.10491 L208.38423 252.40406 L216.04278 249.16908 L223.89804 246.41386 L231.92592 244.15233 L240.10234 242.39838 L248.40321 241.16592 L256.80443 240.46886 L265.28193 240.3211 L273.81162 240.73656 L282.36941 241.72913 L290.93121 243.31273 L299.47295 245.50125 L307.97052 248.30861 L316.39985 251.74872 L324.73684 255.83547 L328.86319 258.12569 L332.63276 260.38654 L339.89029 265.24656 L346.76078 270.53771 L353.23041 276.23603 L359.28534 282.31754 L364.91174 288.7583 L370.09577 295.53433 L374.82359 302.62168 L379.08137 309.99637 L382.85529 317.63446 L386.13149 325.51198 L388.89615 333.60496 L391.13543 341.88944 L392.8355 350.34146 L393.98252 358.93706 L394.56266 367.65227 L394.63583 372.04724 L394.63583 503.59252 L394.55604 508.31115 L393.92678 517.57458 L392.69133 526.59464 L390.87379 535.35743 L388.49825 543.84905 L385.58878 552.05559 L382.16948 559.96314 L378.26443 567.55779 L373.89772 574.82565 L369.09343 581.75279 L363.87566 588.32532 L358.26849 594.52933 L352.296 600.35092 L345.98228 605.77617 L339.35143 610.79118 L332.42751 615.38204 L325.23464 619.53485 L317.79688 623.2357 L310.13832 626.47069 L302.28306 629.2259 L294.25518 631.48744 L286.07876 633.24139 L277.7779 634.47384 L269.37667 635.1709 L260.89917 635.31866 L252.36948 634.90321 L243.81169 633.91063 L235.24989 632.32704 L226.70816 630.13851 L218.21058 627.33115 L209.78126 623.89104 L201.44426 619.80429 L197.31792 617.51407 L193.54834 615.25322 L186.29081 610.3932 L179.42032 605.10205 L172.95069 599.40374 L166.89576 593.32222 L161.26936 586.88147 L156.08534 580.10543 L151.35751 573.01809 L147.09973 565.64339 L143.32582 558.0053 L140.04961 550.12779 L137.28496 542.03481 L135.04567 533.75032 L133.3456 525.2983 L132.19858 516.70271 L131.61844 507.98749 L131.54528 503.59252 L131.62506 498.87389 L132.25433 489.61046 L133.48977 480.5904 L135.30731 471.8276 L137.68286 463.33599 L140.59232 455.12945 L144.01163 447.2219 L147.91668 439.62724 L152.28339 432.35939 L157.08767 425.43225 L162.30544 418.85972 L167.91262 412.65571 L173.8851 406.83412 L180.19882 401.40887 L186.82968 396.39386 L193.75359 391.803 L200.94647 387.65019 L208.38423 383.94934 L216.04278 380.71435 L223.89804 377.95914 L231.92592 375.6976 L240.10234 373.94365 L248.40321 372.7112 L256.80443 372.01414 L265.28193 371.86638 L273.81162 372.28183 L282.36941 373.27441 L290.93121 374.858 L299.47295 377.04653 L307.97052 379.85389 L316.39985 383.29399 L324.73684 387.38075 L328.86319 389.67097 L332.63276 391.93182 L339.89029 396.79184 L346.76078 402.08299 L353.23041 407.7813 L359.28534 413.86282 L364.91174 420.30357 L370.09577 427.0796 L374.82359 434.16695 L379.08137 441.54165 L382.85529 449.17974 L386.13149 457.05725 L388.89615 465.15023 L391.13543 473.43471 L392.8355 481.88674 L393.98252 490.48233 L394.56266 499.19755 L394.63583 503.59252 L394.63583 635.1378 L394.55604 639.85642 L393.92678 649.11985 L392.69133 658.13991 L390.87379 666.90271 L388.49825 675.39433 L385.58878 683.60087 L382.16948 691.50842 L378.26443 699.10307 L373.89772 706.37092 L369.09343 713.29807 L363.87566 719.8706 L358.26849 726.07461 L352.296 731.89619 L345.98228 737.32144 L339.35143 742.33645 L332.42751 746.92732 L325.23464 751.08013 L317.79688 754.78098 L310.13832 758.01596 L302.28306 760.77118 L294.25518 763.03271 L286.07876 764.78666 L277.7779 766.01912 L269.37667 766.71618 L260.89917 766.86394 L252.36948 766.44848 L243.81169 765.45591 L235.24989 763.87231 L226.70816 761.68379 L218.21058 758.87643 L209.78126 755.43632 L201.44426 751.34957 L197.31792 749.05935 L193.54834 746.7985 L186.29081 741.93848 L179.42032 736.64733 L172.95069 730.94901 L166.89576 724.8675 L161.26936 718.42674 L156.08534 711.65071 L151.35751 704.56336 L147.09973 697.18866 L143.32582 689.55058 L140.04961 681.67306 L137.28496 673.58008 L135.04567 665.2956 L133.3456 656.84358 L132.19858 648.24798 L131.61844 639.53277 L131.54528 635.1378 L131.62506 630.41917 L132.25433 621.15574 L133.48977 612.13568 L135.30731 603.37288 L137.68286 594.88126 L140.59232 586.67472 L144.01163 578.76717 L147.91668 571.17252 L152.28339 563.90467 L157.08767 556.97752 L162.30544 550.40499 L167.91262 544.20098 L173.8851 538.3794 L180.19882 532.95415 L186.82968 527.93914 L193.75359 523.34827 L200.94647 519.19546 L208.38423 515.49461 L216.04278 512.25963 L223.89804 509.50441 L231.92592 507.24288 L240.10234 505.48893 L248.40321 504.25647 L256.80443 503.55941 L265.28193 503.41165 L273.81162 503.82711 L282.36941 504.81968 L290.93121 506.40328 L299.47295 508.5918 L307.97052 511.39916 L316.39985 514.83927 L324.73684 518.92602 L328.86319 521.21624 L332.63276 523.47709 L339.89029 528.33711 L346.76078 533.62826 L353.23041 539.32658 L359.28534 545.40809 L364.91174 551.84885 L370.09577 558.62488 L374.82359 565.71223 L379.08137 573.08693 L382.85529 580.72501 L386.13149 588.60253 L388.89615 596.69551 L391.13543 604.97999 L392.8355 613.43201 L393.98252 622.02761 L394.56266 630.74282 L394.63583 635.1378 L394.63583 766.68307 L394.55604 771.4017 L393.92678 780.66513 L392.69133 789.68519 L390.87379 798.44799 L388.49825 806.93961 L385.58878 815.14614 L382.16948 823.05369 L378.26443 830.64835 L373.89772 837.9162 L369.09343 844.84334 L363.87566 851.41587 L358.26849 857.61989 L352.296 863.44147 L345.98228 868.86672 L339.35143 873.88173 L332.42751 878.47259 L325.23464 882.6254 L317.79688 886.32625 L310.13832 889.56124 L302.28306 892.31645 L294.25518 894.57799 L286.07876 896.33194 L277.7779 897.5644 L269.37667 898.26146 L260.89917 898.40921 L252.36948 897.99376 L243.81169 897.00118 L235.24989 895.41759 L226.70816 893.22906 L218.21058 890.4217 L209.78126 886.9816 L201.44426 882.89484 L197.31792 880.60462 L193.54834 878.34377 L186.29081 873.48375 L179.42032 868.1926 L172.95069 862.49429 L166.89576 856.41277 L161.26936 849.97202 L156.08534 843.19599 L151.35751 836.10864 L147.09973 828.73394 L143.32582 821.09585 L140.04961 813.21834 L137.28496 805.12536 L135.04567 796.84088 L133.3456 788.38885 L132.19858 779.79326 L131.61844 771.07804 L131.54528 766.68307 L131.62506 761.96444 L132.25433 752.70102 L133.48977 743.68095 L135.30731 734.91816 L137.68286 726.42654 L140.59232 718.22 L144.01163 710.31245 L147.91668 702.7178 L152.28339 695.44994 L157.08767 688.5228 L162.30544 681.95027 L167.91262 675.74626 L173.8851 669.92467 L180.19882 664.49942 L186.82968 659.48441 L193.75359 654.89355 L200.94647 650.74074 L208.38423 647.03989 L216.04278 643.8049 L223.89804 641.04969 L231.92592 638.78815 L240.10234 637.0342 L248.40321 635.80175 L256.80443 635.10469 L265.28193 634.95693 L273.81162 635.37238 L282.36941 636.36496 L290.93121 637.94855 L299.47295 640.13708 L307.97052 642.94444 L316.39985 646.38455 L324.73684 650.4713 L328.86319 652.76152 L332.63276 655.02237 L339.89029 659.88239 L346.76078 665.17354 L353.23041 670.87185 L359.28534 676.95337 L364.91174 683.39412 L370.09577 690.17016 L374.82359 697.2575 L379.08137 704.6322 L382.85529 712.27029 L386.13149 720.1478 L388.89615 728.24078 L391.13543 736.52527 L392.8355 744.97729 L393.98252 753.57288 L394.56266 762.2881 L394.63583 766.68307 L394.55604 771.4017 L393.92678 780.66513 L392.69133 789.68519 L390.87379 798.44799 L388.49825 806.93961 L385.58878 815.14614 L382.16948 823.05369 L378.26443 830.64835 L373.89772 837.9162 L369.09343 844.84334 L363.87566 851.41587 L358.26849 857.61989 L352.296 863.44147 L345.98228 868.86672 L339.35143 873.88173 L332.42751 878.47259 L325.23464 882.6254 L317.79688 886.32625 L310.13832 889.56124 L302.28306 892.31645 L294.25518 894.57799 L286.07876 896.33194 L277.7779 897.5644 L269.37667 898.26146 L260.89917 898.40921 L252.36948 897.99376 L243.81169 897.00118 L235.24989 895.41759 L226.70816 893.22906 L218.21058 890.4217 L209.78126 886.9816 L201.44426 882.89484 L197.31792 880.60462 L193.54834 878.34377 L186.29081 873.48375 L179.42032 868.1926 L172.95069 862.49429 L166.89576 856.41277 L161.26936 849.97202 L156.08534 843.19599 L151.35751 836.10864 L147.09973 828.73394 L143.32582 821.09585 L140.04961 813.21834 L137.28496 805.12536 L135.04567 796.84088 L133.3456 788.38885 L132.19858 779.79326 L131.61844 771.07804 L131.54528 766.68307 L131.62506 761.96444 L132.25433 752.70102 L133.48977 743.68095 L135.30731 734.91816 L137.68286 726.42654 L140.59232 718.22 L144.01163 710.31245 L147.91668 702.7178 L152.28339 695.44994 L157.08767 688.5228 L162.30544 681.95027 L167.91262 675.74626 L173.8851 669.92467 L180.19882 664.49942 L186.82968 659.48441 L193.75359 654.89355 L200.94647 650.74074 L208.38423 647.03989 L216.04278 643.8049 L223.89804 641.04969 L231.92592 638.78815 L240.10234 637.0342 L248.40321 635.80175 L256.80443 635.10469 L265.28193 634.95693 L273.81162 635.37238 L282.36941 636.36496 L290.93121 637.94855 L299.47295 640.13708 L307.97052 642.94444 L316.39985 646.38455 L324.73684 650.4713 L328.86319 652.76152 L332.63276 655.02237 L339.89029 659.88239 L346.76078 665.17354 L353.23041 670.87185 L359.28534 676.95337 L364.91174 683.39412 L370.09577 690.17016 L374.82359 697.2575 L379.08137 704.6322 L382.85529 712.27029 L386.13149 720.1478 L388.89615 728.24078 L391.13543 736.52527 L392.8355 744.97729 L393.98252 753.57288 L394.56266 762.2881 L394.63583 766.68307 L263.09055 766.68307 L263.09055 635.1378 L263.09055 503.59252 L263.09055 372.04724" />
    <path d="M394.63583 372.04724 L526.1811 372.04724 L526.10132 376.76587 L525.47205 386.0293 L524.23661 395.04936 L522.41907 403.81216 L520.04352 412.30378 L517.13405 420.51032 L513.71475 428.41786 L509.8097 436.01252 L505.44299 443.28037 L500.63871 450.20752 L495.42093 456.78005 L489.81376 462.98406 L483.84127 468.80564 L477.52756 474.23089 L470.8967 479.2459 L463.97279 483.83676 L456.77991 487.98958 L449.34215 491.69043 L441.6836 494.92541 L433.82834 497.68063 L425.80045 499.94216 L417.62404 501.69611 L409.32317 502.92857 L400.92195 503.62563 L392.44444 503.77338 L383.91476 503.35793 L375.35697 502.36536 L366.79516 500.78176 L358.25343 498.59324 L349.75586 495.78587 L341.32653 492.34577 L332.98954 488.25901 L328.86319 485.9688 L325.09362 483.70795 L317.83609 478.84793 L310.96559 473.55678 L304.49596 467.85846 L298.44103 461.77695 L292.81464 455.33619 L287.63061 448.56016 L282.90279 441.47281 L278.645 434.09811 L274.87109 426.46003 L271.59489 418.58251 L268.83023 410.48953 L266.59095 402.20505 L264.89088 393.75303 L263.74386 385.15743 L263.16372 376.44222 L263.09055 372.04724 L263.17034 367.32862 L263.7996 358.06519 L265.03505 349.04512 L266.85259 340.28233 L269.22813 331.79071 L272.1376 323.58417 L275.5569 315.67662 L279.46195 308.08197 L283.82866 300.81412 L288.63295 293.88697 L293.85072 287.31444 L299.45789 281.11043 L305.43038 275.28885 L311.7441 269.8636 L318.37495 264.84859 L325.29886 260.25772 L332.49174 256.10491 L339.9295 252.40406 L347.58806 249.16908 L355.44332 246.41386 L363.4712 244.15233 L371.64762 242.39838 L379.94848 241.16592 L388.34971 240.46886 L396.82721 240.3211 L405.3569 240.73656 L413.91469 241.72913 L422.47649 243.31273 L431.01822 245.50125 L439.51579 248.30861 L447.94512 251.74872 L456.28212 255.83547 L460.40846 258.12569 L464.17804 260.38654 L471.43556 265.24656 L478.30606 270.53771 L484.77569 276.23603 L490.83062 282.31754 L496.45702 288.7583 L501.64104 295.53433 L506.36887 302.62168 L510.62665 309.99637 L514.40056 317.63446 L517.67676 325.51198 L520.44142 333.60496 L522.6807 341.88944 L524.38077 350.34146 L525.5278 358.93706 L526.10794 367.65227 L526.1811 372.04724" />
    <path d="M526.1811 503.59252 L526.10132 508.31115 L525.47205 517.57458 L524.23661 526.59464 L522.41907 535.35743 L520.04352 543.84905 L517.13405 552.05559 L513.71475 559.96314 L509.8097 567.55779 L505.44299 574.82565 L500.63871 581.75279 L495.42093 588.32532 L489.81376 594.52933 L483.84127 600.35092 L477.52756 605.77617 L470.8967 610.79118 L463.97279 615.38204 L456.77991 619.53485 L449.34215 623.2357 L441.6836 626.47069 L433.82834 629.2259 L425.80045 631.48744 L417.62404 633.24139 L409.32317 634.47384 L400.92195 635.1709 L392.44444 635.31866 L383.91476 634.90321 L375.35697 633.91063 L366.79516 632.32704 L358.25343 630.13851 L349.75586 627.33115 L341.32653 623.89104 L332.98954 619.80429 L328.86319 617.51407 L325.09362 615.25322 L317.83609 610.3932 L310.96559 605.10205 L304.49596 599.40374 L298.44103 593.32222 L292.81464 586.88147 L287.63061 580.10543 L282.90279 573.01809 L278.645 565.64339 L274.87109 558.0053 L271.59489 550.12779 L268.83023 542.03481 L266.59095 533.75032 L264.89088 525.2983 L263.74386 516.70271 L263.16372 507.98749 L263.09055 503.59252 L263.17034 498.87389 L263.7996 489.61046 L265.03505 480.5904 L266.85259 471.8276 L269.22813 463.33599 L272.1376 455.12945 L275.5569 447.2219 L279.46195 439.62724 L283.82866 432.35939 L288.63295 425.43225 L293.85072 418.85972 L299.45789 412.65571 L305.43038 406.83412 L311.7441 401.40887 L318.37495 396.39386 L325.29886 391.803 L332.49174 387.65019 L339.9295 383.94934 L347.58806 380.71435 L355.44332 377.95914 L363.4712 375.6976 L371.64762 373.94365 L379.94848 372.7112 L388.34971 372.01414 L396.82721 371.86638 L405.3569 372.28183 L413.91469 373.27441 L422.47649 374.858 L431.01822 377.04653 L439.51579 379.85389 L447.94512 383.29399 L456.28212 387.38075 L460.40846 389.67097 L464.17804 391.93182 L471.43556 396.79184 L478.30606 402.08299 L484.77569 407.7813 L490.83062 413.86282 L496.45702 420.30357 L501.64104 427.0796 L506.36887 434.16695 L510.62665 441.54165 L514.40056 449.17974 L517.67676 457.05725 L520.44142 465.15023 L522.6807 473.43471 L524.38077 481.88674 L525.5278 490.48233 L526.10794 499.19755 L526.1811 503.59252 L526.1811 635.1378 L526.10132 639.85642 L525.47205 649.11985 L524.23661 658.13991 L522.41907 666.90271 L520.04352 675.39433 L517.13405 683.60087 L513.71475 691.50842 L509.8097 699.10307 L505.44299 706.37092 L500.63871 713.29807 L495.42093 719.8706 L489.81376 726.07461 L483.84127 731.89619 L477.52756 737.32144 L470.8967 742.33645 L463.97279 746.92732 L456.77991 751.08013 L449.34215 754.78098 L441.6836 758.01596 L433.82834 760.77118 L425.80045 763.03271 L417.62404 764.78666 L409.32317 766.01912 L400.92195 766.71618 L392.44444 766.86394 L383.91476 766.44848 L375.35697 765.45591 L366.79516 763.87231 L358.25343 761.68379 L349.75586 758.87643 L341.32653 755.43632 L332.98954 751.34957 L328.86319 749.05935 L325.09362 746.7985 L317.83609 741.93848 L310.96559 736.64733 L304.49596 730.94901 L298.44103 724.8675 L292.81464 718.42674 L287.63061 711.65071 L282.90279 704.56336 L278.645 697.18866 L274.87109 689.55058 L271.59489 681.67306 L268.83023 673.58008 L266.59095 665.2956 L264.89088 656.84358 L263.74386 648.24798 L263.16372 639.53277 L263.09055 635.1378 L263.17034 630.41917 L263.7996 621.15574 L265.03505 612.13568 L266.85259 603.37288 L269.22813 594.88126 L272.1376 586.67472 L275.5569 578.76717 L279.46195 571.17252 L283.82866 563.90467 L288.63295 556.97752 L293.85072 550.40499 L299.45789 544.20098 L305.43038 538.3794 L311.7441 532.95415 L318.37495 527.93914 L325.29886 523.34827 L332.49174 519.19546 L339.9295 515.49461 L347.58806 512.25963 L355.44332 509.50441 L363.4712 507.24288 L371.64762 505.48893 L379.94848 504.25647 L388.34971 503.55941 L396.82721 503.41165 L405.3569 503.82711 L413.91469 504.81968 L422.47649 506.40328 L431.01822 508.5918 L439.51579 511.39916 L447.94512 514.83927 L456.28212 518.92602 L460.40846 521.21624 L464.17804 523.47709 L471.43556 528.33711 L478.30606 533.62826 L484.77569 539.32658 L490.83062 545.40809 L496.45702 551.84885 L501.64104 558.62488 L506.36887 565.71223 L510.62665 573.08693 L514.40056 580.72501 L517.67676 588.60253 L520.44142 596.69551 L522.6807 604.97999 L524.38077 613.43201 L525.5278 622.02761 L526.10794 630.74282 L526.1811 635.1378 L526.1811 503.59252 L657.72638 503.59252 L657.64659 508.31115 L657.01733 517.57458 L655.78188 526.59464 L653.96434 535.35743 L651.5888 543.84905 L648.67933 552.05559 L645.26003 559.96314 L641.35498 567.55779 L636.98827 574.82565 L632.18398 581.75279 L626.96621 588.32532 L621.35904 594.52933 L615.38655 600.35092 L609.07283 605.77617 L602.44198 610.79118 L595.51807 615.38204 L588.32519 619.53485 L580.88743 623.2357 L573.22887 626.47069 L565.37361 629.2259 L557.34573 631.48744 L549.16931 633.24139 L540.86845 634.47384 L532.46722 635.1709 L523.98972 635.31866 L515.46003 634.90321 L506.90224 633.91063 L498.34044 632.32704 L489.79871 630.13851 L481.30113 627.33115 L472.87181 623.89104 L464.53481 619.80429 L460.40847 617.51407 L456.63889 615.25322 L449.38137 610.3932 L442.51087 605.10205 L436.04124 599.40374 L429.98631 593.32222 L424.35991 586.88147 L419.17589 580.10543 L414.44806 573.01809 L410.19028 565.64339 L406.41637 558.0053 L403.14017 550.12779 L400.37551 542.03481 L398.13622 533.75032 L396.43616 525.2983 L395.28913 516.70271 L394.70899 507.98749 L394.63583 503.59252 L394.71561 498.87389 L395.34488 489.61046 L396.58032 480.5904 L398.39786 471.8276 L400.77341 463.33599 L403.68288 455.12945 L407.10218 447.2219 L411.00723 439.62724 L415.37394 432.35939 L420.17822 425.43225 L425.39599 418.85972 L431.00317 412.65571 L436.97566 406.83412 L443.28937 401.40887 L449.92023 396.39386 L456.84414 391.803 L464.03702 387.65019 L471.47478 383.94934 L479.13333 380.71435 L486.98859 377.95914 L495.01648 375.6976 L503.19289 373.94365 L511.49376 372.7112 L519.89498 372.01414 L528.37248 371.86638 L536.90217 372.28183 L545.45996 373.27441 L554.02177 374.858 L562.5635 377.04653 L571.06107 379.85389 L579.4904 383.29399 L587.82739 387.38075 L591.95374 389.67097 L595.72331 391.93182 L602.98084 396.79184 L609.85133 402.08299 L616.32096 407.7813 L622.3759 413.86282 L628.00229 420.30357 L633.18632 427.0796 L637.91414 434.16695 L642.17193 441.54165 L645.94584 449.17974 L649.22204 457.05725 L651.9867 465.15023 L654.22598 473.43471 L655.92605 481.88674 L657.07307 490.48233 L657.65321 499.19755 L657.72638 503.59252 L657.72638 372.04724 L789.27165 372.04724 L789.19187 376.76587 L788.5626 386.0293 L787.32716 395.04936 L785.50962 403.81216 L783.13407 412.30378 L780.2246 420.51032 L776.8053 428.41786 L772.90025 436.01252 L768.53354 443.28037 L763.72926 450.20752 L758.51149 456.78005 L752.90431 462.98406 L746.93182 468.80564 L740.61811 474.23089 L733.98725 479.2459 L727.06334 483.83676 L719.87046 487.98958 L712.4327 491.69043 L704.77415 494.92541 L696.91889 497.68063 L688.891 499.94216 L680.71459 501.69611 L672.41372 502.92857 L664.0125 503.62563 L655.535 503.77338 L647.00531 503.35793 L638.44752 502.36536 L629.88571 500.78176 L621.34398 498.59324 L612.84641 495.78587 L604.41708 492.34577 L596.08009 488.25901 L591.95374 485.9688 L588.18417 483.70795 L580.92664 478.84793 L574.05615 473.55678 L567.58652 467.85846 L561.53159 461.77695 L555.90519 455.33619 L550.72116 448.56016 L545.99334 441.47281 L541.73555 434.09811 L537.96164 426.46003 L534.68544 418.58251 L531.92078 410.48953 L529.6815 402.20505 L527.98143 393.75303 L526.83441 385.15743 L526.25427 376.44222 L526.1811 372.04724 L526.26089 367.32862 L526.89015 358.06519 L528.1256 349.04512 L529.94314 340.28233 L532.31868 331.79071 L535.22815 323.58417 L538.64745 315.67662 L542.5525 308.08197 L546.91921 300.81412 L551.7235 293.88697 L556.94127 287.31444 L562.54844 281.11043 L568.52093 275.28885 L574.83465 269.8636 L581.4655 264.84859 L588.38941 260.25772 L595.58229 256.10491 L603.02005 252.40406 L610.67861 249.16908 L618.53387 246.41386 L626.56175 244.15233 L634.73817 242.39838 L643.03903 241.16592 L651.44026 240.46886 L659.91776 240.3211 L668.44745 240.73656 L677.00524 241.72913 L685.56704 243.31273 L694.10877 245.50125 L702.60635 248.30861 L711.03567 251.74872 L719.37267 255.83547 L723.49901 258.12569 L727.26859 260.38654 L734.52611 265.24656 L741.39661 270.53771 L747.86624 276.23603 L753.92117 282.31754 L759.54757 288.7583 L764.73159 295.53433 L769.45942 302.62168 L773.7172 309.99637 L777.49111 317.63446 L780.76731 325.51198 L783.53197 333.60496 L785.77126 341.88944 L787.47133 350.34146 L788.61835 358.93706 L789.19849 367.65227 L789.27165 372.04724" />
    <path d="M789.27165 503.59252 L789.19187 508.31115 L788.5626 517.57458 L787.32716 526.59464 L785.50962 535.35743 L783.13407 543.84905 L780.2246 552.05559 L776.8053 559.96314 L772.90025 567.55779 L768.53354 574.82565 L763.72926 581.75279 L758.51149 588.32532 L752.90431 594.52933 L746.93182 600.35092 L740.61811 605.77617 L733.98725 610.79118 L727.06334 615.38204 L719.87046 619.53485 L712.4327 623.2357 L704.77415 626.47069 L696.91889 629.2259 L688.891 631.48744 L680.71459 633.24139 L672.41372 634.47384 L664.0125 635.1709 L655.535 635.31866 L647.00531 634.90321 L638.44752 633.91063 L629.88571 632.32704 L621.34398 630.13851 L612.84641 627.33115 L604.41708 623.89104 L596.08009 619.80429 L591.95374 617.51407 L588.18417 615.25322 L580.92664 610.3932 L574.05615 605.10205 L567.58652 599.40374 L561.53159 593.32222 L555.90519 586.88147 L550.72116 580.10543 L545.99334 573.01809 L541.73555 565.64339 L537.96164 558.0053 L534.68544 550.12779 L531.92078 542.03481 L529.6815 533.75032 L527.98143 525.2983 L526.83441 516.70271 L526.25427 507.98749 L526.1811 503.59252 L526.26089 498.87389 L526.89015 489.61046 L528.1256 480.5904 L529.94314 471.8276 L532.31868 463.33599 L535.22815 455.12945 L538.64745 447.2219 L542.5525 439.62724 L546.91921 432.35939 L551.7235 425.43225 L556.94127 418.85972 L562.54844 412.65571 L568.52093 406.83412 L574.83465 401.40887 L581.4655 396.39386 L588.38941 391.803 L595.58229 387.65019 L603.02005 383.94934 L610.67861 380.71435 L618.53387 377.95914 L626.56175 375.6976 L634.73817 373.94365 L643.03903 372.7112 L651.44026 372.01414 L659.91776 371.86638 L668.44745 372.28183 L677.00524 373.27441 L685.56704 374.858 L694.10877 377.04653 L702.60635 379.85389 L711.03567 383.29399 L719.37267 387.38075 L723.49901 389.67097 L727.26859 391.93182 L734.52611 396.79184 L741.39661 402.08299 L747.86624 407.7813 L753.92117 413.86282 L759.54757 420.30357 L764.73159 427.0796 L769.45942 434.16695 L773.7172 441.54165 L777.49111 449.17974 L780.76731 457.05725 L783.53197 465.15023 L785.77126 473.43471 L787.47133 481.88674 L788.61835 490.48233 L789.19849 499.19755 L789.27165 503.59252 L789.19187 508.31115 L788.5626 517.57458 L787.32716 526.59464 L785.50962 535.35743 L783.13407 543.84905 L780.2246 552.05559 L776.8053 559.96314 L772.90025 567.55779 L768.53354 574.82565 L763.72926 581.75279 L758.51149 588.32532 L752.90431 594.52933 L746.93182 600.35092 L740.61811 605.77617 L733.98725 610.79118 L727.06334 615.38204 L719.87046 619.53485 L712.4327 623.2357 L704.77415 626.47069 L696.91889 629.2259 L688.891 631.48744 L680.71459 633.24139 L672.41372 634.47384 L664.0125 635.1709 L655.535 635.31866 L647.00531 634.90321 L638.44752 633.91063 L629.88571 632.32704 L621.34398 630.13851 L612.84641 627.33115 L604.41708 623.89104 L596.08009 619.80429 L591.95374 617.51407 L588.18417 615.25322 L580.92664 610.3932 L574.05615 605.10205 L567.58652 599.40374 L561.53159 593.32222 L555.90519 586.88147 L550.72116 580.10543 L545.99334 573.01809 L541.73555 565.64339 L537.96164 558.0053 L534.68544 550.12779 L531.92078 542.03481 L529.6815 533.75032 L527.98143 525.2983 L526.83441 516.70271 L526.25427 507.98749 L526.1811 503.59252 L526.26089 498.87389 L526.89015 489.61046 L528.1256 480.5904 L529.94314 471.8276 L532.31868 463.33599 L535.22815 455.12945 L538.64745 447.2219 L542.5525 439.62724 L546.91921 432.35939 L551.7235 425.43225 L556.94127 418.85972 L562.54844 412.65571 L568.52093 406.83412 L574.83465 401.40887 L581.4655 396.39386 L588.38941 391.803 L595.58229 387.65019 L603.02005 383.94934 L610.67861 380.71435 L618.53387 377.95914 L626.56175 375.6976 L634.73817 373.94365 L643.03903 372.7112 L651.44026 372.01414 L659.91776 371.86638 L668.44745 372.28183 L677.00524 373.27441 L685.56704 374.858 L694.10877 377.04653 L702.60635 379.85389 L711.03567 383.29399 L719.37267 387.38075 L723.49901 389.67097 L727.26859 391.93182 L734.52611 396.79184 L741.39661 402.08299 L747.86624 407.7813 L753.92117 413.86282 L759.54757 420.30357 L764.73159 427.0796 L769.45942 434.16695 L773.7172 441.54165 L777.49111 449.17974 L780.76731 457.05725 L783.53197 465.15023 L785.77126 473.43471 L787.47133 481.88674 L788.61835 490.48233 L789.19849 499.19755 L789.27165 503.59252 L657.72638 503.59252 L657.64659 508.31115 L657.01733 517.57458 L655.78188 526.59464 L653.96434 535.35743 L651.5888 543.84905 L648.67933 552.05559 L645.26003 559.96314 L641.35498 567.55779 L636.98827 574.82565 L632.18398 581.75279 L626.96621 588.32532 L621.35904 594.52933 L615.38655 600.35092 L609.07283 605.77617 L602.44198 610.79118 L595.51807 615.38204 L588.32519 619.53485 L580.88743 623.2357 L573.22887 626.47069 L565.37361 629.2259 L557.34573 631.48744 L549.16931 633.24139 L540.86845 634.47384 L532.46722 635.1709 L523.98972 635.31866 L515.46003 634.90321 L506.90224 633.91063 L498.34044 632.32704 L489.79871 630.13851 L481.30113 627.33115 L472.87181 623.89104 L464.53481 619.80429 L460.40847 617.51407 L456.63889 615.25322 L449.38137 610.3932 L442.51087 605.10205 L436.04124 599.40374 L429.98631 593.32222 L424.35991 586.88147 L419.17589 580.10543 L414.44806 573.01809 L410.19028 565.64339 L406.41637 558.0053 L403.14017 550.12779 L400.37551 542.03481 L398.13622 533.75032 L396.43616 525.2983 L395.28913 516.70271 L394.70899 507.98749 L394.63583 503.59252 L394.71561 498.87389 L395.34488 489.61046 L396.58032 480.5904 L398.39786 471.8276 L400.77341 463.33599 L403.68288 455.12945 L407.10218 447.2219 L411.00723 439.62724 L415.37394 432.35939 L420.17822 425.43225 L425.39599 418.85972 L431.00317 412.65571 L436.97566 406.83412 L443.28937 401.40887 L449.92023 396.39386 L456.84414 391.803 L464.03702 387.65019 L471.47478 383.94934 L479.13333 380.71435 L486.98859 377.95914 L495.01648 375.6976 L503.19289 373.94365 L511.49376 372.7112 L519.89498 372.01414 L528.37248 371.86638 L536.90217 372.28183 L545.45996 373.27441 L554.02177 374.858 L562.5635 377.04653 L571.06107 379.85389 L579.4904 383.29399 L587.82739 387.38075 L591.95374 389.67097 L595.72331 391.93182 L602.98084 396.79184 L609.85133 402.08299 L616.32096 407.7813 L622.3759 413.86282 L628.00229 420.30357 L633.18632 427.0796 L637.91414 434.16695 L642.17193 441.54165 L645.94584 449.17974 L649.22204 457.05725 L651.9867 465.15023 L654.22598 473.43471 L655.92605 481.88674 L657.07307 490.48233 L657.65321 499.19755 L657.72638 503.59252" />
    <path d="M789.27165 503.59252 L789.27165 635.1378 L657.72638 635.1378 L657.64659 639.85642 L657.01733 649.11985 L655.78188 658.13991 L653.96434 666.90271 L651.5888 675.39433 L648.67933 683.60087 L645.26003 691.50842 L641.35498 699.10307 L636.98827 706.37092 L632.18398 713.29807 L626.96621 719.8706 L621.35904 726.07461 L615.38655 731.89619 L609.07283 737.32144 L602.44198 742.33645 L595.51807 746.92732 L588.32519 751.08013 L580.88743 754.78098 L573.22887 758.01596 L565.37361 760.77118 L557.34573 763.03271 L549.16931 764.78666 L540.86845 766.01912 L532.46722 766.71618 L523.98972 766.86394 L515.46003 766.44848 L506.90224 765.45591 L498.34044 763.87231 L489.79871 761.68379 L481.30113 758.87643 L472.87181 755.43632 L464.53481 751.34957 L460.40847 749.05935 L456.63889 746.7985 L449.38137 741.93848 L442.51087 736.64733 L436.04124 730.94901 L429.98631 724.8675 L424.35991 718.42674 L419.17589 711.65071 L414.44806 704.56336 L410.19028 697.18866 L406.41637 689.55058 L403.14017 681.67306 L400.37551 673.58008 L398.13622 665.2956 L396.43616 656.84358 L395.28913 648.24798 L394.70899 639.53277 L394.63583 635.1378 L394.71561 630.41917 L395.34488 621.15574 L396.58032 612.13568 L398.39786 603.37288 L400.77341 594.88126 L403.68288 586.67472 L407.10218 578.76717 L411.00723 571.17252 L415.37394 563.90467 L420.17822 556.97752 L425.39599 550.40499 L431.00317 544.20098 L436.97566 538.3794 L443.28937 532.95415 L449.92023 527.93914 L456.84414 523.34827 L464.03702 519.19546 L471.47478 515.49461 L479.13333 512.25963 L486.98859 509.50441 L495.01648 507.24288 L503.19289 505.48893 L511.49376 504.25647 L519.89498 503.55941 L528.37248 503.41165 L536.90217 503.82711 L545.45996 504.81968 L554.02177 506.40328 L562.5635 508.5918 L571.06107 511.39916 L579.4904 514.83927 L587.82739 518.92602 L591.95374 521.21624 L595.72331 523.47709 L602.98084 528.33711 L609.85133 533.62826 L616.32096 539.32658 L622.3759 545.40809 L628.00229 551.84885 L633.18632 558.62488 L637.91414 565.71223 L642.17193 573.08693 L645.94584 580.72501 L649.22204 588.60253 L651.9867 596.69551 L654.22598 604.97999 L655.92605 613.43201 L657.07307 622.02761 L657.65321 630.74282 L657.72638 635.1378" />
    <path d="M657.72638 766.68307 L526.1811 766.68307 L526.10132 771.4017 L525.47205 780.66513 L524.23661 789.68519 L522.41907 798.44799 L520.04352 806.93961 L517.13405 815.14614 L513.71475 823.05369 L509.8097 830.64835 L505.44299 837.9162 L500.63871 844.84334 L495.42093 851.41587 L489.81376 857.61989 L483.84127 863.44147 L477.52756 868.86672 L470.8967 873.88173 L463.97279 878.47259 L456.77991 882.6254 L449.34215 886.32625 L441.6836 889.56124 L433.82834 892.31645 L425.80045 894.57799 L417.62404 896.33194 L409.32317 897.5644 L400.92195 898.26146 L392.44444 898.40921 L383.91476 897.99376 L375.35697 897.00118 L366.79516 895.41759 L358.25343 893.22906 L349.75586 890.4217 L341.32653 886.9816 L332.98954 882.89484 L328.86319 880.60462 L325.09362 878.34377 L317.83609 873.48375 L310.96559 868.1926 L304.49596 862.49429 L298.44103 856.41277 L292.81464 849.97202 L287.63061 843.19599 L282.90279 836.10864 L278.645 828.73394 L274.87109 821.09585 L271.59489 813.21834 L268.83023 805.12536 L266.59095 796.84088 L264.89088 788.38885 L263.74386 779.79326 L263.16372 771.07804 L263.09055 766.68307 L263.17034 761.96444 L263.7996 752.70102 L265.03505 743.68095 L266.85259 734.91816 L269.22813 726.42654 L272.1376 718.22 L275.5569 710.31245 L279.46195 702.7178 L283.82866 695.44994 L288.63295 688.5228 L293.85072 681.95027 L299.45789 675.74626 L305.43038 669.92467 L311.7441 664.49942 L318.37495 659.48441 L325.29886 654.89355 L332.49174 650.74074 L339.9295 647.03989 L347.58806 643.8049 L355.44332 641.04969 L363.4712 638.78815 L371.64762 637.0342 L379.94848 635.80175 L388.34971 635.10469 L396.82721 634.95693 L405.3569 635.37238 L413.91469 636.36496 L422.47649 637.94855 L431.01822 640.13708 L439.51579 642.94444 L447.94512 646.38455 L456.28212 650.4713 L460.40846 652.76152 L464.17804 655.02237 L471.43556 659.88239 L478.30606 665.17354 L484.77569 670.87185 L490.83062 676.95337 L496.45702 683.39412 L501.64104 690.17016 L506.36887 697.2575 L510.62665 704.6322 L514.40056 712.27029 L517.67676 720.1478 L520.44142 728.24078 L522.6807 736.52527 L524.38077 744.97729 L525.5278 753.57288 L526.10794 762.2881 L526.1811 766.68307 L526.10132 771.4017 L525.47205 780.66513 L524.23661 789.68519 L522.41907 798.44799 L520.04352 806.93961 L517.13405 815.14614 L513.71475 823.05369 L509.8097 830.64835 L505.44299 837.9162 L500.63871 844.84334 L495.42093 851.41587 L489.81376 857.61989 L483.84127 863.44147 L477.52756 868.86672 L470.8967 873.88173 L463.97279 878.47259 L456.77991 882.6254 L449.34215 886.32625 L441.6836 889.56124 L433.82834 892.31645 L425.80045 894.57799 L417.62404 896.33194 L409.32317 897.5644 L400.92195 898.26146 L392.44444 898.40921 L383.91476 897.99376 L375.35697 897.00118 L366.79516 895.41759 L358.25343 893.22906 L349.75586 890.4217 L341.32653 886.9816 L332.98954 882.89484 L328.86319 880.60462 L325.09362 878.34377 L317.83609 873.48375 L310.96559 868.1926 L304.49596 862.49429 L298.44103 856.41277 L292.81464 849.97202 L287.63061 843.19599 L282.90279 836.10864 L278.645 828.73394 L274.87109 821.09585 L271.59489 813.21834 L268.83023 805.12536 L266.59095 796.84088 L264.89088 788.38885 L263.74386 779.79326 L263.16372 771.07804 L263.09055 766.68307 L263.17034 761.96444 L263.7996 752.70102 L265.03505 743.68095 L266.85259 734.91816 L269.22813 726.42654 L272.1376 718.22 L275.5569 710.31245 L279.46195 702.7178 L283.82866 695.44994 L288.63295 688.5228 L293.85072 681.95027 L299.45789 675.74626 L305.43038 669.92467 L311.7441 664.49942 L318.37495 659.48441 L325.29886 654.89355 L332.49174 650.74074 L339.9295 647.03989 L347.58806 643.8049 L355.44332 641.04969 L363.4712 638.78815 L371.64762 637.0342 L379.94848 635.80175 L388.34971 635.10469 L396.82721 634.95693 L405.3569 635.37238 L413.91469 636.36496 L422.47649 637.94855 L431.01822 640.13708 L439.51579 642.94444 L447.94512 646.38455 L456.28212 650.4713 L460.40846 652.76152 L464.17804 655.02237 L471.43556 659.88239 L478.30606 665.17354 L484.77569 670.87185 L490.83062 676.95337 L496.45702 683.39412 L501.64104 690.17016 L506.36887 697.2575 L510.62665 704.6322 L514.40056 712.27029 L517.67676 720.1478 L520.44142 728.24078 L522.6807 736.52527 L524.38077 744.97729 L525.5278 753.57288 L526.10794 762.2881 L526.1811 766.68307 L657.72638 766.68307 L657.64659 771.4017 L657.01733 780.66513 L655.78188 789.68519 L653.96434 798.44799 L651.5888 806.93961 L648.67933 815.14614 L645.26003 823.05369 L641.35498 830.64835 L636.98827 837.9162 L632.18398 844.84334 L626.96621 851.41587 L621.35904 857.61989 L615.38655 863.44147 L609.07283 868.86672 L602.44198 873.88173 L595.51807 878.47259 L588.32519 882.6254 L580.88743 886.32625 L573.22887 889.56124 L565.37361 892.31645 L557.34573 894.57799 L549.16931 896.33194 L540.86845 897.5644 L532.46722 898.26146 L523.98972 898.40921 L515.46003 897.99376 L506.90224 897.00118 L498.34044 895.41759 L489.79871 893.22906 L481.30113 890.4217 L472.87181 886.9816 L464.53481 882.89484 L460.40847 880.60462 L456.63889 878.34377 L449.38137 873.48375 L442.51087 868.1926 L436.04124 862.49429 L429.98631 856.41277 L424.35991 849.97202 L419.17589 843.19599 L414.44806 836.10864 L410.19028 828.73394 L406.41637 821.09585 L403.14017 813.21834 L400.37551 805.12536 L398.13622 796.84088 L396.43616 788.38885 L395.28913 779.79326 L394.70899 771.07804 L394.63583 766.68307 L394.71561 761.96444 L395.34488 752.70102 L396.58032 743.68095 L398.39786 734.91816 L400.77341 726.42654 L403.68288 718.22 L407.10218 710.31245 L411.00723 702.7178 L415.37394 695.44994 L420.17822 688.5228 L425.39599 681.95027 L431.00317 675.74626 L436.97566 669.92467 L443.28937 664.49942 L449.92023 659.48441 L456.84414 654.89355 L464.03702 650.74074 L471.47478 647.03989 L479.13333 643.8049 L486.98859 641.04969 L495.01648 638.78815 L503.19289 637.0342 L511.49376 635.80175 L519.89498 635.10469 L528.37248 634.95693 L536.90217 635.37238 L545.45996 636.36496 L554.02177 637.94855 L562.5635 640.13708 L571.06107 642.94444 L579.4904 646.38455 L587.82739 650.4713 L591.95374 652.76152 L595.72331 655.02237 L602.98084 659.88239 L609.85133 665.17354 L616.32096 670.87185 L622.3759 676.95337 L628.00229 683.39412 L633.18632 690.17016 L637.91414 697.2575 L642.17193 704.6322 L645.94584 712.27029 L649.22204 720.1478 L651.9867 728.24078 L654.22598 736.52527 L655.92605 744.97729 L657.07307 753.57288 L657.65321 762.2881 L657.72638 766.68307" />
    <path d="M789.27165 766.68307 L789.19187 771.4017 L788.5626 780.66513 L787.32716 789.68519 L785.50962 798.44799 L783.13407 806.93961 L780.2246 815.14614 L776.8053 823.05369 L772.90025 830.64835 L768.53354 837.9162 L763.72926 844.84334 L758.51149 851.41587 L752.90431 857.61989 L746.93182 863.44147 L740.61811 868.86672 L733.98725 873.88173 L727.06334 878.47259 L719.87046 882.6254 L712.4327 886.32625 L704.77415 889.56124 L696.91889 892.31645 L688.891 894.57799 L680.71459 896.33194 L672.41372 897.5644 L664.0125 898.26146 L655.535 898.40921 L647.00531 897.99376 L638.44752 897.00118 L629.88571 895.41759 L621.34398 893.22906 L612.84641 890.4217 L604.41708 886.9816 L596.08009 882.89484 L591.95374 880.60462 L588.18417 878.34377 L580.92664 873.48375 L574.05615 868.1926 L567.58652 862.49429 L561.53159 856.41277 L555.90519 849.97202 L550.72116 843.19599 L545.99334 836.10864 L541.73555 828.73394 L537.96164 821.09585 L534.68544 813.21834 L531.92078 805.12536 L529.6815 796.84088 L527.98143 788.38885 L526.83441 779.79326 L526.25427 771.07804 L526.1811 766.68307 L526.26089 761.96444 L526.89015 752.70102 L528.1256 743.68095 L529.94314 734.91816 L532.31868 726.42654 L535.22815 718.22 L538.64745 710.31245 L542.5525 702.7178 L546.91921 695.44994 L551.7235 688.5228 L556.94127 681.95027 L562.54844 675.74626 L568.52093 669.92467 L574.83465 664.49942 L581.4655 659.48441 L588.38941 654.89355 L595.58229 650.74074 L603.02005 647.03989 L610.67861 643.8049 L618.53387 641.04969 L626.56175 638.78815 L634.73817 637.0342 L643.03903 635.80175 L651.44026 635.10469 L659.91776 634.95693 L668.44745 635.37238 L677.00524 636.36496 L685.56704 637.94855 L694.10877 640.13708 L702.60635 642.94444 L711.03567 646.38455 L719.37267 650.4713 L723.49901 652.76152 L727.26859 655.02237 L734.52611 659.88239 L741.39661 665.17354 L747.86624 670.87185 L753.92117 676.95337 L759.54757 683.39412 L764.73159 690.17016 L769.45942 697.2575 L773.7172 704.6322 L777.49111 712.27029 L780.76731 720.1478 L783.53197 728.24078 L785.77126 736.52527 L787.47133 744.97729 L788.61835 753.57288 L789.19849 762.2881 L789.27165 766.68307 L789.27165 635.1378" />
    <path d="M920.81693 635.1378 L920.73714 639.85642 L920.10788 649.11985 L918.87243 658.13992 L917.05489 666.90271 L914.67935 675.39433 L911.76988 683.60087 L908.35058 691.50842 L904.44553 699.10307 L900.07882 706.37092 L895.27453 713.29807 L890.05676 719.8706 L884.44959 726.07461 L878.4771 731.89619 L872.16339 737.32144 L865.53253 742.33645 L858.60862 746.92732 L851.41574 751.08013 L843.97798 754.78098 L836.31943 758.01596 L828.46416 760.77118 L820.43628 763.03271 L812.25986 764.78666 L803.959 766.01912 L795.55777 766.71618 L787.08027 766.86394 L778.55058 766.44848 L769.9928 765.45591 L761.43099 763.87232 L752.88926 761.68379 L744.39169 758.87643 L735.96236 755.43632 L727.62536 751.34957 L723.49902 749.05935 L719.72944 746.7985 L712.47192 741.93848 L705.60142 736.64733 L699.13179 730.94902 L693.07686 724.8675 L687.45046 718.42674 L682.26644 711.65071 L677.53861 704.56336 L673.28083 697.18867 L669.50692 689.55058 L666.23072 681.67306 L663.46606 673.58008 L661.22678 665.2956 L659.52671 656.84358 L658.37968 648.24798 L657.79954 639.53277 L657.72638 635.1378 L657.80616 630.41917 L658.43543 621.15574 L659.67087 612.13568 L661.48841 603.37288 L663.86396 594.88126 L666.77343 586.67472 L670.19273 578.76717 L674.09778 571.17252 L678.46449 563.90467 L683.26877 556.97752 L688.48655 550.40499 L694.09372 544.20098 L700.06621 538.3794 L706.37992 532.95415 L713.01078 527.93914 L719.93469 523.34827 L727.12757 519.19546 L734.56533 515.49461 L742.22388 512.25963 L750.07914 509.50441 L758.10703 507.24288 L766.28344 505.48893 L774.58431 504.25647 L782.98553 503.55941 L791.46303 503.41165 L799.99272 503.82711 L808.55051 504.81968 L817.11232 506.40328 L825.65405 508.5918 L834.15162 511.39916 L842.58095 514.83927 L850.91794 518.92602 L855.04429 521.21624 L858.81386 523.47709 L866.07139 528.33711 L872.94188 533.62826 L879.41152 539.32658 L885.46645 545.40809 L891.09284 551.84885 L896.27687 558.62488 L901.00469 565.71223 L905.26248 573.08692 L909.03639 580.72501 L912.31259 588.60253 L915.07725 596.69551 L917.31653 604.97999 L919.0166 613.43201 L920.16362 622.02761 L920.74376 630.74282 L920.81693 635.1378 L920.73714 639.85642 L920.10788 649.11985 L918.87243 658.13992 L917.05489 666.90271 L914.67935 675.39433 L911.76988 683.60087 L908.35058 691.50842 L904.44553 699.10307 L900.07882 706.37092 L895.27453 713.29807 L890.05676 719.8706 L884.44959 726.07461 L878.4771 731.89619 L872.16339 737.32144 L865.53253 742.33645 L858.60862 746.92732 L851.41574 751.08013 L843.97798 754.78098 L836.31943 758.01596 L828.46416 760.77118 L820.43628 763.03271 L812.25986 764.78666 L803.959 766.01912 L795.55777 766.71618 L787.08027 766.86394 L778.55058 766.44848 L769.9928 765.45591 L761.43099 763.87232 L752.88926 761.68379 L744.39169 758.87643 L735.96236 755.43632 L727.62536 751.34957 L723.49902 749.05935 L719.72944 746.7985 L712.47192 741.93848 L705.60142 736.64733 L699.13179 730.94902 L693.07686 724.8675 L687.45046 718.42674 L682.26644 711.65071 L677.53861 704.56336 L673.28083 697.18867 L669.50692 689.55058 L666.23072 681.67306 L663.46606 673.58008 L661.22678 665.2956 L659.52671 656.84358 L658.37968 648.24798 L657.79954 639.53277 L657.72638 635.1378 L657.80616 630.41917 L658.43543 621.15574 L659.67087 612.13568 L661.48841 603.37288 L663.86396 594.88126 L666.77343 586.67472 L670.19273 578.76717 L674.09778 571.17252 L678.46449 563.90467 L683.26877 556.97752 L688.48655 550.40499 L694.09372 544.20098 L700.06621 538.3794 L706.37992 532.95415 L713.01078 527.93914 L719.93469 523.34827 L727.12757 519.19546 L734.56533 515.49461 L742.22388 512.25963 L750.07914 509.50441 L758.10703 507.24288 L766.28344 505.48893 L774.58431 504.25647 L782.98553 503.55941 L791.46303 503.41165 L799.99272 503.82711 L808.55051 504.81968 L817.11232 506.40328 L825.65405 508.5918 L834.15162 511.39916 L842.58095 514.83927 L850.91794 518.92602 L855.04429 521.21624 L858.81386 523.47709 L866.07139 528.33711 L872.94188 533.62826 L879.41152 539.32658 L885.46645 545.40809 L891.09284 551.84885 L896.27687 558.62488 L901.00469 565.71223 L905.26248 573.08692 L909.03639 580.72501 L912.31259 588.60253 L915.07725 596.69551 L917.31653 604.97999 L919.0166 613.43201 L920.16362 622.02761 L920.74376 630.74282 L920.81693 635.1378" />
    <path d="M920.81693 503.59252 L920.73714 508.31115 L920.10788 517.57458 L918.87243 526.59464 L917.05489 535.35743 L914.67935 543.84905 L911.76988 552.05559 L908.35058 559.96314 L904.44553 567.55779 L900.07882 574.82565 L895.27453 581.75279 L890.05676 588.32532 L884.44959 594.52933 L878.4771 600.35092 L872.16339 605.77617 L865.53253 610.79118 L858.60862 615.38204 L851.41574 619.53485 L843.97798 623.2357 L836.31943 626.47069 L828.46416 629.2259 L820.43628 631.48744 L812.25986 633.24139 L803.959 634.47385 L795.55777 635.17091 L787.08027 635.31866 L778.55058 634.90321 L769.9928 633.91064 L761.43099 632.32704 L752.88926 630.13851 L744.39169 627.33115 L735.96236 623.89105 L727.62536 619.80429 L723.49902 617.51408 L719.72944 615.25323 L712.47192 610.3932 L705.60142 605.10205 L699.13179 599.40374 L693.07686 593.32222 L687.45046 586.88147 L682.26644 580.10544 L677.53861 573.01809 L673.28083 565.64339 L669.50692 558.0053 L666.23072 550.12779 L663.46606 542.03481 L661.22678 533.75033 L659.52671 525.2983 L658.37968 516.70271 L657.79954 507.98749 L657.72638 503.59252 L657.80616 498.87389 L658.43543 489.61046 L659.67087 480.5904 L661.48841 471.8276 L663.86396 463.33599 L666.77343 455.12945 L670.19273 447.2219 L674.09778 439.62724 L678.46449 432.35939 L683.26877 425.43225 L688.48655 418.85972 L694.09372 412.6557 L700.06621 406.83412 L706.37992 401.40887 L713.01078 396.39386 L719.93469 391.803 L727.12757 387.65019 L734.56533 383.94934 L742.22388 380.71435 L750.07914 377.95914 L758.10703 375.6976 L766.28344 373.94365 L774.58431 372.71119 L782.98553 372.01413 L791.46303 371.86638 L799.99272 372.28183 L808.55051 373.2744 L817.11232 374.858 L825.65405 377.04653 L834.15162 379.85389 L842.58095 383.29399 L850.91794 387.38075 L855.04429 389.67096 L858.81386 391.93181 L866.07139 396.79184 L872.94188 402.08299 L879.41152 407.7813 L885.46645 413.86282 L891.09284 420.30357 L896.27687 427.0796 L901.00469 434.16695 L905.26248 441.54165 L909.03639 449.17974 L912.31259 457.05725 L915.07725 465.15023 L917.31653 473.43471 L919.0166 481.88674 L920.16362 490.48233 L920.74376 499.19755 L920.81693 503.59252" />
    <path d="M789.27165 898.22835 L789.19187 902.94698 L788.5626 912.2104 L787.32716 921.23047 L785.50962 929.99326 L783.13407 938.48488 L780.2246 946.69142 L776.8053 954.59897 L772.90025 962.19362 L768.53354 969.46147 L763.72926 976.38862 L758.51149 982.96115 L752.90431 989.16516 L746.93182 994.98674 L740.61811 1000.41199 L733.98725 1005.427 L727.06334 1010.01787 L719.87046 1014.17068 L712.4327 1017.87153 L704.77415 1021.10651 L696.91889 1023.86173 L688.891 1026.12326 L680.71459 1027.87721 L672.41372 1029.10967 L664.0125 1029.80673 L655.535 1029.95449 L647.00531 1029.53903 L638.44752 1028.54646 L629.88571 1026.96286 L621.34398 1024.77434 L612.84641 1021.96698 L604.41708 1018.52687 L596.08009 1014.44012 L591.95374 1012.1499 L588.18417 1009.88905 L580.92664 1005.02903 L574.05615 999.73788 L567.58652 994.03956 L561.53159 987.95805 L555.90519 981.51729 L550.72116 974.74126 L545.99334 967.65391 L541.73555 960.27922 L537.96164 952.64113 L534.68544 944.76361 L531.92078 936.67063 L529.6815 928.38615 L527.98143 919.93413 L526.83441 911.33853 L526.25427 902.62332 L526.1811 898.22835 L526.26089 893.50972 L526.89015 884.24629 L528.1256 875.22623 L529.94314 866.46343 L532.31868 857.97181 L535.22815 849.76527 L538.64745 841.85773 L542.5525 834.26307 L546.91921 826.99522 L551.7235 820.06807 L556.94127 813.49554 L562.54844 807.29153 L568.52093 801.46995 L574.83465 796.0447 L581.4655 791.02969 L588.38941 786.43883 L595.58229 782.28602 L603.02005 778.58516 L610.67861 775.35018 L618.53387 772.59497 L626.56175 770.33343 L634.73817 768.57948 L643.03903 767.34702 L651.44026 766.64996 L659.91776 766.50221 L668.44745 766.91766 L677.00524 767.91023 L685.56704 769.49383 L694.10877 771.68235 L702.60635 774.48972 L711.03567 777.92982 L719.37267 782.01658 L723.49901 784.30679 L727.26859 786.56764 L734.52611 791.42767 L741.39661 796.71881 L747.86624 802.41713 L753.92117 808.49864 L759.54757 814.9394 L764.73159 821.71543 L769.45942 828.80278 L773.7172 836.17748 L777.49111 843.81557 L780.76731 851.69308 L783.53197 859.78606 L785.77126 868.07054 L787.47133 876.52256 L788.61835 885.11816 L789.19849 893.83337 L789.27165 898.22835 L789.19187 902.94698 L788.5626 912.2104 L787.32716 921.23047 L785.50962 929.99326 L783.13407 938.48488 L780.2246 946.69142 L776.8053 954.59897 L772.90025 962.19362 L768.53354 969.46147 L763.72926 976.38862 L758.51149 982.96115 L752.90431 989.16516 L746.93182 994.98674 L740.61811 1000.41199 L733.98725 1005.427 L727.06334 1010.01787 L719.87046 1014.17068 L712.4327 1017.87153 L704.77415 1021.10651 L696.91889 1023.86173 L688.891 1026.12326 L680.71459 1027.87721 L672.41372 1029.10967 L664.0125 1029.80673 L655.535 1029.95449 L647.00531 1029.53903 L638.44752 1028.54646 L629.88571 1026.96286 L621.34398 1024.77434 L612.84641 1021.96698 L604.41708 1018.52687 L596.08009 1014.44012 L591.95374 1012.1499 L588.18417 1009.88905 L580.92664 1005.02903 L574.05615 999.73788 L567.58652 994.03956 L561.53159 987.95805 L555.90519 981.51729 L550.72116 974.74126 L545.99334 967.65391 L541.73555 960.27922 L537.96164 952.64113 L534.68544 944.76361 L531.92078 936.67063 L529.6815 928.38615 L527.98143 919.93413 L526.83441 911.33853 L526.25427 902.62332 L526.1811 898.22835 L526.26089 893.50972 L526.89015 884.24629 L528.1256 875.22623 L529.94314 866.46343 L532.31868 857.97181 L535.22815 849.76527 L538.64745 841.85773 L542.5525 834.26307 L546.91921 826.99522 L551.7235 820.06807 L556.94127 813.49554 L562.54844 807.29153 L568.52093 801.46995 L574.83465 796.0447 L581.4655 791.02969 L588.38941 786.43883 L595.58229 782.28602 L603.02005 778.58516 L610.67861 775.35018 L618.53387 772.59497 L626.56175 770.33343 L634.73817 768.57948 L643.03903 767.34702 L651.44026 766.64996 L659.91776 766.50221 L668.44745 766.91766 L677.00524 767.91023 L685.56704 769.49383 L694.10877 771.68235 L702.60635 774.48972 L711.03567 777.92982 L719.37267 782.01658 L723.49901 784.30679 L727.26859 786.56764 L734.52611 791.42767 L741.39661 796.71881 L747.86624 802.41713 L753.92117 808.49864 L759.54757 814.9394 L764.73159 821.71543 L769.45942 828.80278 L773.7172 836.17748 L777.49111 843.81557 L780.76731 851.69308 L783.53197 859.78606 L785.77126 868.07054 L787.47133 876.52256 L788.61835 885.11816 L789.19849 893.83337 L789.27165 898.22835 L657.72638 898.22835 L657.64659 902.94698 L657.01733 912.2104 L655.78188 921.23047 L653.96434 929.99326 L651.5888 938.48488 L648.67933 946.69142 L645.26003 954.59897 L641.35498 962.19362 L636.98827 969.46147 L632.18398 976.38862 L626.96621 982.96115 L621.35904 989.16516 L615.38655 994.98674 L609.07283 1000.41199 L602.44198 1005.427 L595.51807 1010.01787 L588.32519 1014.17068 L580.88743 1017.87153 L573.22887 1021.10651 L565.37361 1023.86173 L557.34573 1026.12326 L549.16931 1027.87721 L540.86845 1029.10967 L532.46722 1029.80673 L523.98972 1029.95449 L515.46003 1029.53903 L506.90224 1028.54646 L498.34044 1026.96286 L489.79871 1024.77434 L481.30113 1021.96698 L472.87181 1018.52687 L464.53481 1014.44012 L460.40847 1012.1499 L456.63889 1009.88905 L449.38137 1005.02903 L442.51087 999.73788 L436.04124 994.03956 L429.98631 987.95805 L424.35991 981.51729 L419.17589 974.74126 L414.44806 967.65391 L410.19028 960.27922 L406.41637 952.64113 L403.14017 944.76361 L400.37551 936.67063 L398.13622 928.38615 L396.43616 919.93413 L395.28913 911.33853 L394.70899 902.62332 L394.63583 898.22835 L394.71561 893.50972 L395.34488 884.24629 L396.58032 875.22623 L398.39786 866.46343 L400.77341 857.97181 L403.68288 849.76527 L407.10218 841.85773 L411.00723 834.26307 L415.37394 826.99522 L420.17822 820.06807 L425.39599 813.49554 L431.00317 807.29153 L436.97566 801.46995 L443.28937 796.0447 L449.92023 791.02969 L456.84414 786.43883 L464.03702 782.28602 L471.47478 778.58516 L479.13333 775.35018 L486.98859 772.59497 L495.01648 770.33343 L503.19289 768.57948 L511.49376 767.34702 L519.89498 766.64996 L528.37248 766.50221 L536.90217 766.91766 L545.45996 767.91023 L554.02177 769.49383 L562.5635 771.68235 L571.06107 774.48972 L579.4904 777.92982 L587.82739 782.01658 L591.95374 784.30679 L595.72331 786.56764 L602.98084 791.42767 L609.85133 796.71881 L616.32096 802.41713 L622.3759 808.49864 L628.00229 814.9394 L633.18632 821.71543 L637.91414 828.80278 L642.17193 836.17748 L645.94584 843.81557 L649.22204 851.69308 L651.9867 859.78606 L654.22598 868.07054 L655.92605 876.52256 L657.07307 885.11816 L657.65321 893.83337 L657.72638 898.22835 L526.1811 898.22835 L657.72638 898.22835" />
    <path d="M394.63583 898.22835 L394.63583 766.68307" />
    <path d="M263.09055 766.68307 L263.09055 898.22835" />
  </g>
</svg>